%TF.GenerationSoftware,KiCad,Pcbnew,9.0.7*%
%TF.CreationDate,2026-04-29T13:19:09-05:00*%
%TF.ProjectId,DIYDSPv0.6,44495944-5350-4763-902e-362e6b696361,rev?*%
%TF.SameCoordinates,Original*%
%TF.FileFunction,Soldermask,Bot*%
%TF.FilePolarity,Negative*%
%FSLAX46Y46*%
G04 Gerber Fmt 4.6, Leading zero omitted, Abs format (unit mm)*
G04 Created by KiCad (PCBNEW 9.0.7) date 2026-04-29 13:19:09*
%MOMM*%
%LPD*%
G01*
G04 APERTURE LIST*
%ADD10R,1.700000X1.700000*%
%ADD11C,1.700000*%
%ADD12C,2.000000*%
%ADD13C,4.000000*%
%ADD14R,1.800000X1.800000*%
%ADD15C,1.800000*%
%ADD16C,1.000000*%
%ADD17O,1.000000X2.100000*%
%ADD18O,1.000000X1.800000*%
G04 APERTURE END LIST*
D10*
%TO.C,J6*%
X109499400Y-73558400D03*
%TD*%
D11*
%TO.C,J2*%
X74930000Y-98069400D03*
X72390000Y-98069400D03*
X69850000Y-98069400D03*
X67310000Y-98069400D03*
D10*
X64770000Y-98069400D03*
%TD*%
D12*
%TO.C,TP15*%
X101066600Y-36601400D03*
%TD*%
%TO.C,TP9*%
X41681400Y-48844200D03*
%TD*%
D10*
%TO.C,J5*%
X24079200Y-80975200D03*
D11*
X26619200Y-80975200D03*
X29159200Y-80975200D03*
X31699200Y-80975200D03*
%TD*%
D12*
%TO.C,TP19*%
X89077800Y-36347400D03*
%TD*%
D13*
%TO.C,TP6*%
X117424200Y-97434400D03*
%TD*%
D12*
%TO.C,TP17*%
X47675800Y-48844200D03*
%TD*%
D14*
%TO.C,U4*%
X23194766Y-48499967D03*
D15*
X23194766Y-51039967D03*
X23194766Y-53579967D03*
%TD*%
D12*
%TO.C,TP21*%
X70561200Y-48869600D03*
%TD*%
D10*
%TO.C,J4*%
X60833000Y-70586600D03*
D11*
X60833000Y-68046600D03*
%TD*%
D13*
%TO.C,TP3*%
X22580600Y-97434400D03*
%TD*%
D12*
%TO.C,TP13*%
X104063800Y-36601400D03*
%TD*%
D16*
%TO.C,U18*%
X117946200Y-72691000D03*
X117946200Y-80191000D03*
%TD*%
D13*
%TO.C,TP1*%
X22555200Y-22555200D03*
%TD*%
D12*
%TO.C,TP14*%
X64566800Y-48869600D03*
%TD*%
%TO.C,TP16*%
X44678600Y-48844200D03*
%TD*%
%TO.C,TP7*%
X24079200Y-67538600D03*
%TD*%
%TO.C,TP18*%
X92075000Y-36449000D03*
%TD*%
D16*
%TO.C,U19*%
X117947550Y-89190400D03*
X117947550Y-81690400D03*
%TD*%
D12*
%TO.C,TP23*%
X109296200Y-36601400D03*
%TD*%
D15*
%TO.C,CN1*%
X23952200Y-29362400D03*
X23952200Y-34362400D03*
%TD*%
D12*
%TO.C,TP20*%
X67564000Y-48869600D03*
%TD*%
%TO.C,TP2*%
X26901400Y-39674800D03*
%TD*%
%TO.C,TP8*%
X38684200Y-48844200D03*
%TD*%
%TO.C,TP12*%
X61569600Y-48920400D03*
%TD*%
%TO.C,TP5*%
X29057600Y-58623200D03*
%TD*%
D16*
%TO.C,U7*%
X21523850Y-77290800D03*
X21523850Y-69790800D03*
%TD*%
D12*
%TO.C,TP22*%
X112293400Y-36626800D03*
%TD*%
D17*
%TO.C,U10*%
X105396000Y-93076000D03*
X114036000Y-93076000D03*
D18*
X114036000Y-97256000D03*
X105396000Y-97256000D03*
%TD*%
D12*
%TO.C,TP11*%
X80695800Y-36449000D03*
%TD*%
%TO.C,TP10*%
X83693000Y-36423600D03*
%TD*%
D13*
%TO.C,TP4*%
X117449600Y-22555200D03*
%TD*%
D10*
%TO.C,J1*%
X36855400Y-98069400D03*
D11*
X39395400Y-98069400D03*
X41935400Y-98069400D03*
X44475400Y-98069400D03*
X47015400Y-98069400D03*
X49555400Y-98069400D03*
%TD*%
D10*
%TO.C,J3*%
X78994000Y-91592400D03*
D11*
X78994000Y-89052400D03*
X78994000Y-86512400D03*
X78994000Y-83972400D03*
%TD*%
M02*
