%TF.GenerationSoftware,KiCad,Pcbnew,9.0.7*%
%TF.CreationDate,2026-04-29T13:19:09-05:00*%
%TF.ProjectId,DIYDSPv0.6,44495944-5350-4763-902e-362e6b696361,rev?*%
%TF.SameCoordinates,Original*%
%TF.FileFunction,Soldermask,Top*%
%TF.FilePolarity,Negative*%
%FSLAX46Y46*%
G04 Gerber Fmt 4.6, Leading zero omitted, Abs format (unit mm)*
G04 Created by KiCad (PCBNEW 9.0.7) date 2026-04-29 13:19:09*
%MOMM*%
%LPD*%
G01*
G04 APERTURE LIST*
G04 Aperture macros list*
%AMRoundRect*
0 Rectangle with rounded corners*
0 $1 Rounding radius*
0 $2 $3 $4 $5 $6 $7 $8 $9 X,Y pos of 4 corners*
0 Add a 4 corners polygon primitive as box body*
4,1,4,$2,$3,$4,$5,$6,$7,$8,$9,$2,$3,0*
0 Add four circle primitives for the rounded corners*
1,1,$1+$1,$2,$3*
1,1,$1+$1,$4,$5*
1,1,$1+$1,$6,$7*
1,1,$1+$1,$8,$9*
0 Add four rect primitives between the rounded corners*
20,1,$1+$1,$2,$3,$4,$5,0*
20,1,$1+$1,$4,$5,$6,$7,0*
20,1,$1+$1,$6,$7,$8,$9,0*
20,1,$1+$1,$8,$9,$2,$3,0*%
%AMFreePoly0*
4,1,7,0.750000,-0.750000,-0.750000,-0.750000,-0.750000,-0.050000,-0.050000,-0.050000,-0.050000,0.750000,0.750000,0.750000,0.750000,-0.750000,0.750000,-0.750000,$1*%
%AMFreePoly1*
4,1,7,0.050000,-0.050000,0.750000,-0.050000,0.750000,-0.750000,-0.750000,-0.750000,-0.750000,0.750000,0.050000,0.750000,0.050000,-0.050000,0.050000,-0.050000,$1*%
G04 Aperture macros list end*
%ADD10RoundRect,0.135000X-0.135000X-0.185000X0.135000X-0.185000X0.135000X0.185000X-0.135000X0.185000X0*%
%ADD11R,1.700000X1.700000*%
%ADD12R,3.000000X1.400000*%
%ADD13RoundRect,0.250000X0.450000X-0.262500X0.450000X0.262500X-0.450000X0.262500X-0.450000X-0.262500X0*%
%ADD14RoundRect,0.250000X-0.450000X0.262500X-0.450000X-0.262500X0.450000X-0.262500X0.450000X0.262500X0*%
%ADD15R,0.900000X0.900000*%
%ADD16R,1.500000X0.900000*%
%ADD17R,0.900000X1.500000*%
%ADD18RoundRect,0.140000X-0.140000X-0.170000X0.140000X-0.170000X0.140000X0.170000X-0.140000X0.170000X0*%
%ADD19RoundRect,0.135000X0.185000X-0.135000X0.185000X0.135000X-0.185000X0.135000X-0.185000X-0.135000X0*%
%ADD20RoundRect,0.200000X-0.275000X0.200000X-0.275000X-0.200000X0.275000X-0.200000X0.275000X0.200000X0*%
%ADD21RoundRect,0.140000X-0.170000X0.140000X-0.170000X-0.140000X0.170000X-0.140000X0.170000X0.140000X0*%
%ADD22RoundRect,0.140000X0.170000X-0.140000X0.170000X0.140000X-0.170000X0.140000X-0.170000X-0.140000X0*%
%ADD23RoundRect,0.140000X0.140000X0.170000X-0.140000X0.170000X-0.140000X-0.170000X0.140000X-0.170000X0*%
%ADD24O,2.038000X0.574000*%
%ADD25C,1.700000*%
%ADD26RoundRect,0.135000X0.135000X0.185000X-0.135000X0.185000X-0.135000X-0.185000X0.135000X-0.185000X0*%
%ADD27C,2.000000*%
%ADD28RoundRect,0.225000X0.250000X-0.225000X0.250000X0.225000X-0.250000X0.225000X-0.250000X-0.225000X0*%
%ADD29RoundRect,0.250000X-0.250000X-0.475000X0.250000X-0.475000X0.250000X0.475000X-0.250000X0.475000X0*%
%ADD30RoundRect,0.225000X-0.250000X0.225000X-0.250000X-0.225000X0.250000X-0.225000X0.250000X0.225000X0*%
%ADD31RoundRect,0.200000X0.200000X0.275000X-0.200000X0.275000X-0.200000X-0.275000X0.200000X-0.275000X0*%
%ADD32RoundRect,0.250000X0.262500X0.450000X-0.262500X0.450000X-0.262500X-0.450000X0.262500X-0.450000X0*%
%ADD33RoundRect,0.225000X0.225000X0.250000X-0.225000X0.250000X-0.225000X-0.250000X0.225000X-0.250000X0*%
%ADD34R,0.300000X0.800000*%
%ADD35R,0.800000X0.300000*%
%ADD36R,6.000000X6.000000*%
%ADD37C,4.000000*%
%ADD38RoundRect,0.250000X-0.262500X-0.450000X0.262500X-0.450000X0.262500X0.450000X-0.262500X0.450000X0*%
%ADD39R,1.800000X1.800000*%
%ADD40C,1.800000*%
%ADD41R,0.900000X0.280000*%
%ADD42R,0.280000X0.900000*%
%ADD43R,3.700000X3.700000*%
%ADD44R,1.194000X0.838000*%
%ADD45R,0.838000X0.838000*%
%ADD46RoundRect,0.243750X0.243750X0.456250X-0.243750X0.456250X-0.243750X-0.456250X0.243750X-0.456250X0*%
%ADD47R,1.000000X1.200000*%
%ADD48RoundRect,0.250000X0.475000X-0.250000X0.475000X0.250000X-0.475000X0.250000X-0.475000X-0.250000X0*%
%ADD49R,1.200000X1.200000*%
%ADD50FreePoly0,90.000000*%
%ADD51C,1.000000*%
%ADD52FreePoly1,90.000000*%
%ADD53RoundRect,0.135000X-0.185000X0.135000X-0.185000X-0.135000X0.185000X-0.135000X0.185000X0.135000X0*%
%ADD54RoundRect,0.250000X-0.475000X0.250000X-0.475000X-0.250000X0.475000X-0.250000X0.475000X0.250000X0*%
%ADD55RoundRect,0.243750X-0.243750X-0.456250X0.243750X-0.456250X0.243750X0.456250X-0.243750X0.456250X0*%
%ADD56R,0.800000X3.400000*%
%ADD57RoundRect,0.243750X0.456250X-0.243750X0.456250X0.243750X-0.456250X0.243750X-0.456250X-0.243750X0*%
%ADD58FreePoly0,270.000000*%
%ADD59FreePoly1,270.000000*%
%ADD60R,1.100000X2.500000*%
%ADD61R,3.600000X2.340000*%
%ADD62O,1.000000X2.100000*%
%ADD63O,1.000000X1.800000*%
%ADD64R,0.600000X1.240000*%
%ADD65R,0.300000X1.240000*%
G04 APERTURE END LIST*
D10*
%TO.C,R76*%
X113076800Y-72059800D03*
X114096800Y-72059800D03*
%TD*%
D11*
%TO.C,J6*%
X109499400Y-73558400D03*
%TD*%
D12*
%TO.C,U16*%
X106207800Y-31468000D03*
X113207800Y-23368000D03*
X113207800Y-26368000D03*
X113207800Y-30368000D03*
%TD*%
%TO.C,U14*%
X95717600Y-31468000D03*
X102717600Y-23368000D03*
X102717600Y-26368000D03*
X102717600Y-30368000D03*
%TD*%
%TO.C,U15*%
X85227400Y-31468000D03*
X92227400Y-23368000D03*
X92227400Y-26368000D03*
X92227400Y-30368000D03*
%TD*%
%TO.C,U13*%
X74737200Y-31468000D03*
X81737200Y-23368000D03*
X81737200Y-26368000D03*
X81737200Y-30368000D03*
%TD*%
%TO.C,U12*%
X64247000Y-31468000D03*
X71247000Y-23368000D03*
X71247000Y-26368000D03*
X71247000Y-30368000D03*
%TD*%
%TO.C,U9*%
X53756800Y-31468000D03*
X60756800Y-23368000D03*
X60756800Y-26368000D03*
X60756800Y-30368000D03*
%TD*%
%TO.C,U11*%
X43241200Y-31468000D03*
X50241200Y-23368000D03*
X50241200Y-26368000D03*
X50241200Y-30368000D03*
%TD*%
%TO.C,U8*%
X32751000Y-31468000D03*
X39751000Y-23368000D03*
X39751000Y-26368000D03*
X39751000Y-30368000D03*
%TD*%
D13*
%TO.C,R23*%
X109270800Y-84179400D03*
X109270800Y-86004400D03*
%TD*%
D14*
%TO.C,R24*%
X111175800Y-86004400D03*
X111175800Y-84179400D03*
%TD*%
D15*
%TO.C,U17*%
X90627200Y-89300400D03*
X90627200Y-90700400D03*
X90627200Y-92100400D03*
X92027200Y-89300400D03*
X92027200Y-90700400D03*
X92027200Y-92100400D03*
X93427200Y-89300400D03*
X93427200Y-90700400D03*
X93427200Y-92100400D03*
D16*
X81777200Y-98420400D03*
X81777200Y-97150400D03*
X81777200Y-95880400D03*
X81777200Y-94610400D03*
X81777200Y-93340400D03*
X81777200Y-92070400D03*
X81777200Y-90800400D03*
X81777200Y-89530400D03*
X81777200Y-88260400D03*
X81777200Y-86990400D03*
X81777200Y-85720400D03*
X81777200Y-84450400D03*
X81777200Y-83180400D03*
X81777200Y-81910400D03*
D17*
X83542200Y-80660400D03*
X84812200Y-80630400D03*
X86082200Y-80630400D03*
X87352200Y-80630400D03*
X88622200Y-80630400D03*
X89892200Y-80630400D03*
X91162200Y-80630400D03*
X92432200Y-80630400D03*
X93702200Y-80630400D03*
X94972200Y-80630400D03*
X96242200Y-80630400D03*
X97512200Y-80630400D03*
D16*
X99277200Y-81910400D03*
X99277200Y-83180400D03*
X99277200Y-84450400D03*
X99277200Y-85720400D03*
X99277200Y-86990400D03*
X99277200Y-88260400D03*
X99277200Y-89530400D03*
X99277200Y-90800400D03*
X99277200Y-92070400D03*
X99277200Y-93340400D03*
X99277200Y-94610400D03*
X99277200Y-95880400D03*
X99277200Y-97150400D03*
X99277200Y-98420400D03*
%TD*%
D10*
%TO.C,R36*%
X37363400Y-41884600D03*
X38383400Y-41884600D03*
%TD*%
D18*
%TO.C,C8*%
X59639200Y-90754200D03*
X60599200Y-90754200D03*
%TD*%
D19*
%TO.C,R27*%
X58597800Y-68251800D03*
X58597800Y-67231800D03*
%TD*%
D20*
%TO.C,R53*%
X47218600Y-35356800D03*
X47218600Y-37006800D03*
%TD*%
D18*
%TO.C,C18*%
X59568200Y-60426600D03*
X60528200Y-60426600D03*
%TD*%
D21*
%TO.C,C68*%
X41681400Y-50772000D03*
X41681400Y-51732000D03*
%TD*%
D22*
%TO.C,C44*%
X43942000Y-79395200D03*
X43942000Y-78435200D03*
%TD*%
D18*
%TO.C,C30*%
X36708200Y-61925200D03*
X37668200Y-61925200D03*
%TD*%
D23*
%TO.C,C42*%
X55930800Y-91871800D03*
X54970800Y-91871800D03*
%TD*%
D24*
%TO.C,U23*%
X104061000Y-38923200D03*
X104061000Y-40193200D03*
X104061000Y-41463200D03*
X104061000Y-42733200D03*
X104061000Y-44003200D03*
X104061000Y-45273200D03*
X104061000Y-46543200D03*
X109299000Y-46543200D03*
X109299000Y-45273200D03*
X109299000Y-44003200D03*
X109299000Y-42733200D03*
X109299000Y-41463200D03*
X109299000Y-40193200D03*
X109299000Y-38923200D03*
%TD*%
D25*
%TO.C,J2*%
X74930000Y-98069400D03*
X72390000Y-98069400D03*
X69850000Y-98069400D03*
X67310000Y-98069400D03*
D11*
X64770000Y-98069400D03*
%TD*%
D19*
%TO.C,R13*%
X64566800Y-68076000D03*
X64566800Y-67056000D03*
%TD*%
D26*
%TO.C,R75*%
X112418400Y-39674800D03*
X111398400Y-39674800D03*
%TD*%
D13*
%TO.C,R17*%
X79832200Y-97155000D03*
X79832200Y-95330000D03*
%TD*%
D27*
%TO.C,TP15*%
X101066600Y-36601400D03*
%TD*%
D18*
%TO.C,C17*%
X36708200Y-60426600D03*
X37668200Y-60426600D03*
%TD*%
D26*
%TO.C,R64*%
X92104400Y-39522400D03*
X91084400Y-39522400D03*
%TD*%
D18*
%TO.C,C15*%
X36733600Y-57962800D03*
X37693600Y-57962800D03*
%TD*%
D28*
%TO.C,C25*%
X34594800Y-60605000D03*
X34594800Y-59055000D03*
%TD*%
D22*
%TO.C,C54*%
X114198400Y-80721200D03*
X114198400Y-81681200D03*
%TD*%
D29*
%TO.C,C11*%
X23195200Y-43916600D03*
X25095200Y-43916600D03*
%TD*%
D21*
%TO.C,C9*%
X66167000Y-85295800D03*
X66167000Y-86255800D03*
%TD*%
D26*
%TO.C,R70*%
X49326800Y-41706800D03*
X48306800Y-41706800D03*
%TD*%
D21*
%TO.C,C36*%
X60629800Y-87584400D03*
X60629800Y-88544400D03*
%TD*%
D30*
%TO.C,C1*%
X49276000Y-61619800D03*
X49276000Y-63169800D03*
%TD*%
D22*
%TO.C,C67*%
X81737200Y-33802200D03*
X81737200Y-32842200D03*
%TD*%
D21*
%TO.C,C82*%
X44678600Y-50774600D03*
X44678600Y-51734600D03*
%TD*%
D28*
%TO.C,C34*%
X30073600Y-70891400D03*
X30073600Y-72441400D03*
%TD*%
D21*
%TO.C,C69*%
X61569600Y-50856000D03*
X61569600Y-51816000D03*
%TD*%
D19*
%TO.C,R15*%
X54991000Y-92934600D03*
X54991000Y-93954600D03*
%TD*%
D27*
%TO.C,TP9*%
X41681400Y-48844200D03*
%TD*%
D10*
%TO.C,R41*%
X100910200Y-42062400D03*
X101930200Y-42062400D03*
%TD*%
D11*
%TO.C,J5*%
X24079200Y-80975200D03*
D25*
X26619200Y-80975200D03*
X29159200Y-80975200D03*
X31699200Y-80975200D03*
%TD*%
D21*
%TO.C,C20*%
X52705000Y-90926800D03*
X52705000Y-89966800D03*
%TD*%
D22*
%TO.C,C87*%
X113207800Y-33802200D03*
X113207800Y-32842200D03*
%TD*%
D31*
%TO.C,R35*%
X103580200Y-48056800D03*
X101930200Y-48056800D03*
%TD*%
D14*
%TO.C,R19*%
X30175200Y-61192400D03*
X30175200Y-63017400D03*
%TD*%
D22*
%TO.C,C61*%
X83286600Y-51861600D03*
X83286600Y-50901600D03*
%TD*%
D27*
%TO.C,TP19*%
X89077800Y-36347400D03*
%TD*%
D26*
%TO.C,R74*%
X71780400Y-41757600D03*
X70760400Y-41757600D03*
%TD*%
D32*
%TO.C,R18*%
X49831000Y-75666600D03*
X48006000Y-75666600D03*
%TD*%
D23*
%TO.C,C5*%
X45999400Y-62433200D03*
X45039400Y-62433200D03*
%TD*%
D24*
%TO.C,U20*%
X40561000Y-38923200D03*
X40561000Y-40193200D03*
X40561000Y-41463200D03*
X40561000Y-42733200D03*
X40561000Y-44003200D03*
X40561000Y-45273200D03*
X40561000Y-46543200D03*
X45799000Y-46543200D03*
X45799000Y-45273200D03*
X45799000Y-44003200D03*
X45799000Y-42733200D03*
X45799000Y-41463200D03*
X45799000Y-40193200D03*
X45799000Y-38923200D03*
%TD*%
D33*
%TO.C,C51*%
X48082200Y-92532200D03*
X46532200Y-92532200D03*
%TD*%
D26*
%TO.C,R61*%
X92104400Y-46202600D03*
X91084400Y-46202600D03*
%TD*%
D34*
%TO.C,U1*%
X45838800Y-88667600D03*
X46339300Y-88667600D03*
X46838800Y-88667600D03*
X47339300Y-88667600D03*
X47838800Y-88667600D03*
X48339300Y-88667600D03*
X48838800Y-88667600D03*
X49339300Y-88667600D03*
X49838800Y-88667600D03*
X50339300Y-88667600D03*
X50838800Y-88667600D03*
X51339300Y-88667600D03*
X51838800Y-88667600D03*
X52339300Y-88667600D03*
X52838800Y-88667600D03*
X53339300Y-88667600D03*
X53838800Y-88667600D03*
X54339300Y-88667600D03*
D35*
X55088800Y-87917600D03*
X55088800Y-87417600D03*
X55088800Y-86917600D03*
X55088800Y-86417600D03*
X55088800Y-85917600D03*
X55088800Y-85417600D03*
X55088800Y-84917600D03*
X55088800Y-84417600D03*
X55088800Y-83917600D03*
X55088800Y-83417600D03*
X55088800Y-82917600D03*
X55088800Y-82417600D03*
X55088800Y-81917600D03*
X55088800Y-81417600D03*
X55088800Y-80917600D03*
X55088800Y-80417600D03*
X55088800Y-79917600D03*
X55088800Y-79417600D03*
D34*
X54338800Y-78667600D03*
X53838800Y-78667600D03*
X53338800Y-78667600D03*
X52838800Y-78667600D03*
X52338800Y-78667600D03*
X51838800Y-78667600D03*
X51338800Y-78667600D03*
X50838800Y-78667600D03*
X50338800Y-78667600D03*
X49838800Y-78667600D03*
X49338800Y-78667600D03*
X48838800Y-78667600D03*
X48338800Y-78667600D03*
X47838800Y-78667600D03*
X47338800Y-78667600D03*
X46838800Y-78667600D03*
X46338800Y-78667600D03*
X45838800Y-78667600D03*
D35*
X45088800Y-79417600D03*
X45088800Y-79917600D03*
X45088800Y-80417600D03*
X45088800Y-80917600D03*
X45088800Y-81417600D03*
X45088800Y-81917600D03*
X45088800Y-82417600D03*
X45088800Y-82917600D03*
X45088800Y-83417600D03*
X45088800Y-83917600D03*
X45088800Y-84417600D03*
X45088800Y-84917600D03*
X45088800Y-85417600D03*
X45088800Y-85917600D03*
X45088800Y-86417600D03*
X45088800Y-86917600D03*
X45088800Y-87417600D03*
X45088800Y-87917600D03*
D36*
X50089300Y-83667600D03*
%TD*%
D10*
%TO.C,R46*%
X37359400Y-46558200D03*
X38379400Y-46558200D03*
%TD*%
D20*
%TO.C,R33*%
X57734200Y-35357800D03*
X57734200Y-37007800D03*
%TD*%
D37*
%TO.C,TP6*%
X117424200Y-97434400D03*
%TD*%
D38*
%TO.C,R1*%
X58498100Y-85826600D03*
X60323100Y-85826600D03*
%TD*%
D21*
%TO.C,C62*%
X60756800Y-32847400D03*
X60756800Y-33807400D03*
%TD*%
D22*
%TO.C,C77*%
X92735400Y-52095400D03*
X92735400Y-51135400D03*
%TD*%
%TO.C,C60*%
X80289400Y-51861600D03*
X80289400Y-50901600D03*
%TD*%
D18*
%TO.C,C23*%
X44836200Y-77546200D03*
X45796200Y-77546200D03*
%TD*%
D21*
%TO.C,C59*%
X37566600Y-32847400D03*
X37566600Y-33807400D03*
%TD*%
D27*
%TO.C,TP17*%
X47675800Y-48844200D03*
%TD*%
D20*
%TO.C,R57*%
X68224400Y-35356800D03*
X68224400Y-37006800D03*
%TD*%
D32*
%TO.C,R8*%
X47214800Y-64160400D03*
X45389800Y-64160400D03*
%TD*%
D39*
%TO.C,U4*%
X23194766Y-48499967D03*
D40*
X23194766Y-51039967D03*
X23194766Y-53579967D03*
%TD*%
D32*
%TO.C,R7*%
X70887600Y-56032400D03*
X69062600Y-56032400D03*
%TD*%
D23*
%TO.C,C21*%
X45054400Y-89814400D03*
X44094400Y-89814400D03*
%TD*%
D18*
%TO.C,C26*%
X26167200Y-70408800D03*
X27127200Y-70408800D03*
%TD*%
D31*
%TO.C,R59*%
X113054400Y-48844200D03*
X111404400Y-48844200D03*
%TD*%
D28*
%TO.C,C14*%
X30073600Y-69469600D03*
X30073600Y-67919600D03*
%TD*%
D22*
%TO.C,C86*%
X89941400Y-33802200D03*
X89941400Y-32842200D03*
%TD*%
D21*
%TO.C,C28*%
X58420000Y-87579200D03*
X58420000Y-88539200D03*
%TD*%
D27*
%TO.C,TP21*%
X70561200Y-48869600D03*
%TD*%
D41*
%TO.C,U3*%
X66771200Y-63433600D03*
X66771200Y-62933600D03*
X66771200Y-62433100D03*
X66771200Y-61932600D03*
X66771200Y-61434600D03*
X66771200Y-60934600D03*
X66771200Y-60434100D03*
X66771200Y-59933600D03*
D42*
X65971200Y-59133600D03*
X65470700Y-59133600D03*
X64970700Y-59133600D03*
X64470200Y-59133600D03*
X63972200Y-59133600D03*
X63472200Y-59133600D03*
X62971700Y-59133600D03*
X62471200Y-59133600D03*
D41*
X61671200Y-59933600D03*
X61671200Y-60434100D03*
X61671200Y-60934600D03*
X61671200Y-61434600D03*
X61671200Y-61932600D03*
X61671200Y-62433100D03*
X61671200Y-62933600D03*
X61671200Y-63433600D03*
D42*
X62471200Y-64234100D03*
X62971700Y-64234100D03*
X63472200Y-64234100D03*
X63972200Y-64234100D03*
X64470200Y-64234100D03*
X64970700Y-64234100D03*
X65470700Y-64234100D03*
X65971200Y-64234100D03*
D43*
X64221200Y-61683600D03*
%TD*%
D44*
%TO.C,U6*%
X37720250Y-69395100D03*
D45*
X36020250Y-69395100D03*
X36020250Y-71778100D03*
X37920250Y-71778100D03*
%TD*%
D28*
%TO.C,C19*%
X34594800Y-63576200D03*
X34594800Y-62026200D03*
%TD*%
D10*
%TO.C,R38*%
X37361400Y-44196000D03*
X38381400Y-44196000D03*
%TD*%
D11*
%TO.C,J4*%
X60833000Y-70586600D03*
D25*
X60833000Y-68046600D03*
%TD*%
D21*
%TO.C,C88*%
X70561200Y-50805200D03*
X70561200Y-51765200D03*
%TD*%
D31*
%TO.C,R30*%
X80288400Y-48056800D03*
X78638400Y-48056800D03*
%TD*%
D22*
%TO.C,C35*%
X55930800Y-95326200D03*
X55930800Y-96286200D03*
%TD*%
D21*
%TO.C,C66*%
X38684200Y-50774600D03*
X38684200Y-51734600D03*
%TD*%
D22*
%TO.C,C83*%
X92227400Y-33802200D03*
X92227400Y-32842200D03*
%TD*%
D37*
%TO.C,TP3*%
X22580600Y-97434400D03*
%TD*%
D46*
%TO.C,D3*%
X49885600Y-72466200D03*
X48010600Y-72466200D03*
%TD*%
D21*
%TO.C,C85*%
X67564000Y-50805200D03*
X67564000Y-51765200D03*
%TD*%
D23*
%TO.C,C43*%
X48539400Y-89941400D03*
X47579400Y-89941400D03*
%TD*%
D47*
%TO.C,D1*%
X21034000Y-39471600D03*
X24384000Y-39471600D03*
%TD*%
D28*
%TO.C,C24*%
X57480200Y-60426600D03*
X57480200Y-58876600D03*
%TD*%
D23*
%TO.C,C4*%
X68859400Y-61518800D03*
X67899400Y-61518800D03*
%TD*%
D22*
%TO.C,C70*%
X79451200Y-33802200D03*
X79451200Y-32842200D03*
%TD*%
D32*
%TO.C,R6*%
X70887600Y-57937400D03*
X69062600Y-57937400D03*
%TD*%
D24*
%TO.C,U21*%
X83741000Y-38912800D03*
X83741000Y-40182800D03*
X83741000Y-41452800D03*
X83741000Y-42722800D03*
X83741000Y-43992800D03*
X83741000Y-45262800D03*
X83741000Y-46532800D03*
X88979000Y-46532800D03*
X88979000Y-45262800D03*
X88979000Y-43992800D03*
X88979000Y-42722800D03*
X88979000Y-41452800D03*
X88979000Y-40182800D03*
X88979000Y-38912800D03*
%TD*%
D21*
%TO.C,C79*%
X69062600Y-32847400D03*
X69062600Y-33807400D03*
%TD*%
D18*
%TO.C,C13*%
X26441400Y-68122800D03*
X27401400Y-68122800D03*
%TD*%
D10*
%TO.C,R48*%
X80590200Y-46583600D03*
X81610200Y-46583600D03*
%TD*%
D22*
%TO.C,C89*%
X110921800Y-33802200D03*
X110921800Y-32842200D03*
%TD*%
%TO.C,C71*%
X102717600Y-33802200D03*
X102717600Y-32842200D03*
%TD*%
D32*
%TO.C,R2*%
X48053000Y-59969400D03*
X46228000Y-59969400D03*
%TD*%
D23*
%TO.C,C52*%
X55595400Y-89814400D03*
X54635400Y-89814400D03*
%TD*%
D22*
%TO.C,C81*%
X113055400Y-52649000D03*
X113055400Y-51689000D03*
%TD*%
D20*
%TO.C,R28*%
X39446200Y-35356800D03*
X39446200Y-37006800D03*
%TD*%
D48*
%TO.C,C55*%
X103124000Y-95885000D03*
X103124000Y-93985000D03*
%TD*%
D27*
%TO.C,TP13*%
X104063800Y-36601400D03*
%TD*%
D10*
%TO.C,R40*%
X80590200Y-44221400D03*
X81610200Y-44221400D03*
%TD*%
D49*
%TO.C,U18*%
X115646200Y-78566000D03*
X115646200Y-74366000D03*
D50*
X118196200Y-73016000D03*
D51*
X117946200Y-72691000D03*
X117946200Y-80191000D03*
D52*
X118196200Y-79916000D03*
%TD*%
D21*
%TO.C,C78*%
X71247000Y-32847400D03*
X71247000Y-33807400D03*
%TD*%
%TO.C,C40*%
X56210200Y-78440400D03*
X56210200Y-79400400D03*
%TD*%
%TO.C,C72*%
X64566800Y-50805200D03*
X64566800Y-51765200D03*
%TD*%
D37*
%TO.C,TP1*%
X22555200Y-22555200D03*
%TD*%
D20*
%TO.C,R29*%
X36703000Y-35344600D03*
X36703000Y-36994600D03*
%TD*%
D27*
%TO.C,TP14*%
X64566800Y-48869600D03*
%TD*%
D26*
%TO.C,R62*%
X49328800Y-39497000D03*
X48308800Y-39497000D03*
%TD*%
D18*
%TO.C,C48*%
X31653600Y-66751200D03*
X32613600Y-66751200D03*
%TD*%
D23*
%TO.C,C2*%
X45994200Y-61518800D03*
X45034200Y-61518800D03*
%TD*%
%TO.C,C6*%
X68854200Y-62433200D03*
X67894200Y-62433200D03*
%TD*%
D24*
%TO.C,U22*%
X63446400Y-38948600D03*
X63446400Y-40218600D03*
X63446400Y-41488600D03*
X63446400Y-42758600D03*
X63446400Y-44028600D03*
X63446400Y-45298600D03*
X63446400Y-46568600D03*
X68684400Y-46568600D03*
X68684400Y-45298600D03*
X68684400Y-44028600D03*
X68684400Y-42758600D03*
X68684400Y-41488600D03*
X68684400Y-40218600D03*
X68684400Y-38948600D03*
%TD*%
D32*
%TO.C,R5*%
X70887600Y-59842400D03*
X69062600Y-59842400D03*
%TD*%
D10*
%TO.C,R47*%
X60194000Y-39547800D03*
X61214000Y-39547800D03*
%TD*%
D30*
%TO.C,C3*%
X71882000Y-61493400D03*
X71882000Y-63043400D03*
%TD*%
D26*
%TO.C,R71*%
X71784400Y-43992800D03*
X70764400Y-43992800D03*
%TD*%
D53*
%TO.C,R20*%
X75031600Y-86410800D03*
X75031600Y-85390800D03*
%TD*%
D41*
%TO.C,U2*%
X43911200Y-63426100D03*
X43911200Y-62926100D03*
X43911200Y-62425600D03*
X43911200Y-61925100D03*
X43911200Y-61427100D03*
X43911200Y-60927100D03*
X43911200Y-60426600D03*
X43911200Y-59926100D03*
D42*
X43111200Y-59126100D03*
X42610700Y-59126100D03*
X42110700Y-59126100D03*
X41610200Y-59126100D03*
X41112200Y-59126100D03*
X40612200Y-59126100D03*
X40111700Y-59126100D03*
X39611200Y-59126100D03*
D41*
X38811200Y-59926100D03*
X38811200Y-60426600D03*
X38811200Y-60927100D03*
X38811200Y-61427100D03*
X38811200Y-61925100D03*
X38811200Y-62425600D03*
X38811200Y-62926100D03*
X38811200Y-63426100D03*
D42*
X39611200Y-64226600D03*
X40111700Y-64226600D03*
X40612200Y-64226600D03*
X41112200Y-64226600D03*
X41610200Y-64226600D03*
X42110700Y-64226600D03*
X42610700Y-64226600D03*
X43111200Y-64226600D03*
D43*
X41361200Y-61676100D03*
%TD*%
D21*
%TO.C,C74*%
X50241200Y-32842200D03*
X50241200Y-33802200D03*
%TD*%
D20*
%TO.C,R52*%
X49936400Y-35356800D03*
X49936400Y-37006800D03*
%TD*%
D31*
%TO.C,R31*%
X83260200Y-48056800D03*
X81610200Y-48056800D03*
%TD*%
D10*
%TO.C,R37*%
X80590200Y-41859200D03*
X81610200Y-41859200D03*
%TD*%
D28*
%TO.C,C31*%
X53594000Y-96570800D03*
X53594000Y-95020800D03*
%TD*%
D13*
%TO.C,R11*%
X67360800Y-67661800D03*
X67360800Y-65836800D03*
%TD*%
D33*
%TO.C,C32*%
X45060200Y-92329000D03*
X43510200Y-92329000D03*
%TD*%
D26*
%TO.C,R68*%
X49330800Y-43942000D03*
X48310800Y-43942000D03*
%TD*%
D27*
%TO.C,TP16*%
X44678600Y-48844200D03*
%TD*%
D21*
%TO.C,C22*%
X56210200Y-87584400D03*
X56210200Y-88544400D03*
%TD*%
D22*
%TO.C,C56*%
X114325400Y-74543800D03*
X114325400Y-73583800D03*
%TD*%
D54*
%TO.C,C7*%
X26035000Y-23393400D03*
X26035000Y-25293400D03*
%TD*%
D22*
%TO.C,C76*%
X89763600Y-52090200D03*
X89763600Y-51130200D03*
%TD*%
D10*
%TO.C,R50*%
X60194000Y-46532800D03*
X61214000Y-46532800D03*
%TD*%
D27*
%TO.C,TP7*%
X24079200Y-67538600D03*
%TD*%
D32*
%TO.C,R9*%
X70074800Y-64109600D03*
X68249800Y-64109600D03*
%TD*%
D27*
%TO.C,TP18*%
X92075000Y-36449000D03*
%TD*%
D32*
%TO.C,R4*%
X48053000Y-56159400D03*
X46228000Y-56159400D03*
%TD*%
D52*
%TO.C,U19*%
X118197550Y-88915400D03*
D51*
X117947550Y-89190400D03*
X117947550Y-81690400D03*
D50*
X118197550Y-82015400D03*
D49*
X115647550Y-83365400D03*
X115647550Y-87565400D03*
%TD*%
D27*
%TO.C,TP23*%
X109296200Y-36601400D03*
%TD*%
D26*
%TO.C,R69*%
X92102400Y-43992800D03*
X91082400Y-43992800D03*
%TD*%
D32*
%TO.C,R3*%
X48056800Y-58064400D03*
X46231800Y-58064400D03*
%TD*%
D26*
%TO.C,R60*%
X49328800Y-46177200D03*
X48308800Y-46177200D03*
%TD*%
D40*
%TO.C,CN1*%
X23952200Y-29362400D03*
X23952200Y-34362400D03*
%TD*%
D31*
%TO.C,R34*%
X100608400Y-48056800D03*
X98958400Y-48056800D03*
%TD*%
D54*
%TO.C,C10*%
X29260800Y-23398400D03*
X29260800Y-25298400D03*
%TD*%
D21*
%TO.C,C84*%
X47675800Y-50774600D03*
X47675800Y-51734600D03*
%TD*%
D55*
%TO.C,D2*%
X74833000Y-95097600D03*
X76708000Y-95097600D03*
%TD*%
D21*
%TO.C,C53*%
X39243000Y-70363200D03*
X39243000Y-71323200D03*
%TD*%
D29*
%TO.C,C12*%
X30053200Y-54457600D03*
X31953200Y-54457600D03*
%TD*%
D10*
%TO.C,R51*%
X100910200Y-46761400D03*
X101930200Y-46761400D03*
%TD*%
D21*
%TO.C,C57*%
X100736400Y-97155000D03*
X100736400Y-98115000D03*
%TD*%
D18*
%TO.C,C37*%
X44836200Y-73101200D03*
X45796200Y-73101200D03*
%TD*%
D26*
%TO.C,R25*%
X101729000Y-95885000D03*
X100709000Y-95885000D03*
%TD*%
D10*
%TO.C,R39*%
X60194000Y-41859200D03*
X61214000Y-41859200D03*
%TD*%
%TO.C,R49*%
X100910200Y-39700200D03*
X101930200Y-39700200D03*
%TD*%
D18*
%TO.C,C29*%
X44836200Y-75336400D03*
X45796200Y-75336400D03*
%TD*%
D21*
%TO.C,C58*%
X39751000Y-32842200D03*
X39751000Y-33802200D03*
%TD*%
D22*
%TO.C,C46*%
X41630600Y-88920200D03*
X41630600Y-87960200D03*
%TD*%
D56*
%TO.C,X1*%
X63423800Y-92411200D03*
X63423800Y-86811200D03*
%TD*%
D22*
%TO.C,C41*%
X43967400Y-88920200D03*
X43967400Y-87960200D03*
%TD*%
D26*
%TO.C,R72*%
X92104400Y-41757600D03*
X91084400Y-41757600D03*
%TD*%
D22*
%TO.C,C64*%
X100609400Y-51912400D03*
X100609400Y-50952400D03*
%TD*%
D27*
%TO.C,TP20*%
X67564000Y-48869600D03*
%TD*%
D10*
%TO.C,R42*%
X60194000Y-44221400D03*
X61214000Y-44221400D03*
%TD*%
D27*
%TO.C,TP2*%
X26901400Y-39674800D03*
%TD*%
%TO.C,TP8*%
X38684200Y-48844200D03*
%TD*%
D57*
%TO.C,D4*%
X30175200Y-66416400D03*
X30175200Y-64541400D03*
%TD*%
D27*
%TO.C,TP12*%
X61569600Y-48920400D03*
%TD*%
D19*
%TO.C,R26*%
X58547000Y-70895400D03*
X58547000Y-69875400D03*
%TD*%
D27*
%TO.C,TP5*%
X29057600Y-58623200D03*
%TD*%
D10*
%TO.C,R45*%
X80590200Y-39522400D03*
X81610200Y-39522400D03*
%TD*%
D13*
%TO.C,R10*%
X44500800Y-67739900D03*
X44500800Y-65914900D03*
%TD*%
D18*
%TO.C,C16*%
X59588400Y-57988200D03*
X60548400Y-57988200D03*
%TD*%
D10*
%TO.C,R22*%
X111705200Y-90830400D03*
X112725200Y-90830400D03*
%TD*%
D49*
%TO.C,U7*%
X23823850Y-71415800D03*
X23823850Y-75615800D03*
D58*
X21273850Y-76965800D03*
D51*
X21523850Y-77290800D03*
X21523850Y-69790800D03*
D59*
X21273850Y-70065800D03*
%TD*%
D10*
%TO.C,R44*%
X37359400Y-39547800D03*
X38379400Y-39547800D03*
%TD*%
D21*
%TO.C,C63*%
X58572400Y-32847400D03*
X58572400Y-33807400D03*
%TD*%
D20*
%TO.C,R32*%
X60477400Y-35357800D03*
X60477400Y-37007800D03*
%TD*%
D21*
%TO.C,C49*%
X60629800Y-78440400D03*
X60629800Y-79400400D03*
%TD*%
D27*
%TO.C,TP22*%
X112293400Y-36626800D03*
%TD*%
D60*
%TO.C,U5*%
X21779200Y-64537800D03*
X24079200Y-64537800D03*
X26379200Y-64537800D03*
D61*
X24079200Y-58597800D03*
%TD*%
D22*
%TO.C,C65*%
X103581200Y-51912400D03*
X103581200Y-50952400D03*
%TD*%
D62*
%TO.C,U10*%
X105396000Y-93076000D03*
X114036000Y-93076000D03*
D63*
X114036000Y-97256000D03*
X105396000Y-97256000D03*
D64*
X106516000Y-92456000D03*
X107316000Y-92456000D03*
D65*
X108466000Y-92456000D03*
X109466000Y-92456000D03*
X109966000Y-92456000D03*
X110966000Y-92456000D03*
D64*
X112916000Y-92456000D03*
X112116000Y-92456000D03*
D65*
X111466000Y-92456000D03*
X110466000Y-92456000D03*
X108966000Y-92456000D03*
X107966000Y-92456000D03*
%TD*%
D20*
%TO.C,R56*%
X70967600Y-35370000D03*
X70967600Y-37020000D03*
%TD*%
D22*
%TO.C,C73*%
X100431600Y-33807400D03*
X100431600Y-32847400D03*
%TD*%
D18*
%TO.C,C33*%
X59568200Y-61925200D03*
X60528200Y-61925200D03*
%TD*%
D19*
%TO.C,R12*%
X41681400Y-68046600D03*
X41681400Y-67026600D03*
%TD*%
D26*
%TO.C,R14*%
X37490400Y-66979800D03*
X36470400Y-66979800D03*
%TD*%
%TO.C,R73*%
X112422400Y-46380400D03*
X111402400Y-46380400D03*
%TD*%
%TO.C,R65*%
X112422400Y-44145200D03*
X111402400Y-44145200D03*
%TD*%
D31*
%TO.C,R58*%
X110082600Y-48844200D03*
X108432600Y-48844200D03*
%TD*%
D22*
%TO.C,C50*%
X39268400Y-88920200D03*
X39268400Y-87960200D03*
%TD*%
D21*
%TO.C,C75*%
X48056800Y-32842200D03*
X48056800Y-33802200D03*
%TD*%
D27*
%TO.C,TP11*%
X80695800Y-36449000D03*
%TD*%
%TO.C,TP10*%
X83693000Y-36423600D03*
%TD*%
D22*
%TO.C,C80*%
X110083600Y-52649000D03*
X110083600Y-51689000D03*
%TD*%
D37*
%TO.C,TP4*%
X117449600Y-22555200D03*
%TD*%
D23*
%TO.C,C47*%
X55930800Y-90906600D03*
X54970800Y-90906600D03*
%TD*%
D11*
%TO.C,J1*%
X36855400Y-98069400D03*
D25*
X39395400Y-98069400D03*
X41935400Y-98069400D03*
X44475400Y-98069400D03*
X47015400Y-98069400D03*
X49555400Y-98069400D03*
%TD*%
D18*
%TO.C,C39*%
X54358600Y-77520800D03*
X55318600Y-77520800D03*
%TD*%
D21*
%TO.C,C45*%
X58394600Y-78440400D03*
X58394600Y-79400400D03*
%TD*%
D10*
%TO.C,R21*%
X106756200Y-90805000D03*
X107776200Y-90805000D03*
%TD*%
D11*
%TO.C,J3*%
X78994000Y-91592400D03*
D25*
X78994000Y-89052400D03*
X78994000Y-86512400D03*
X78994000Y-83972400D03*
%TD*%
D10*
%TO.C,R43*%
X100910200Y-44424600D03*
X101930200Y-44424600D03*
%TD*%
D28*
%TO.C,C27*%
X57480200Y-63399000D03*
X57480200Y-61849000D03*
%TD*%
D26*
%TO.C,R63*%
X71784400Y-46228000D03*
X70764400Y-46228000D03*
%TD*%
D19*
%TO.C,R16*%
X53695600Y-90986800D03*
X53695600Y-89966800D03*
%TD*%
D26*
%TO.C,R66*%
X71784400Y-39522400D03*
X70764400Y-39522400D03*
%TD*%
%TO.C,R67*%
X112422400Y-41910000D03*
X111402400Y-41910000D03*
%TD*%
D22*
%TO.C,C38*%
X54914800Y-95326200D03*
X54914800Y-96286200D03*
%TD*%
D31*
%TO.C,R54*%
X89763600Y-48666400D03*
X88113600Y-48666400D03*
%TD*%
%TO.C,R55*%
X92735400Y-48666400D03*
X91085400Y-48666400D03*
%TD*%
M02*
