%TF.GenerationSoftware,KiCad,Pcbnew,9.0.7*%
%TF.CreationDate,2026-04-29T13:19:09-05:00*%
%TF.ProjectId,DIYDSPv0.6,44495944-5350-4763-902e-362e6b696361,rev?*%
%TF.SameCoordinates,Original*%
%TF.FileFunction,Paste,Top*%
%TF.FilePolarity,Positive*%
%FSLAX46Y46*%
G04 Gerber Fmt 4.6, Leading zero omitted, Abs format (unit mm)*
G04 Created by KiCad (PCBNEW 9.0.7) date 2026-04-29 13:19:09*
%MOMM*%
%LPD*%
G01*
G04 APERTURE LIST*
G04 Aperture macros list*
%AMRoundRect*
0 Rectangle with rounded corners*
0 $1 Rounding radius*
0 $2 $3 $4 $5 $6 $7 $8 $9 X,Y pos of 4 corners*
0 Add a 4 corners polygon primitive as box body*
4,1,4,$2,$3,$4,$5,$6,$7,$8,$9,$2,$3,0*
0 Add four circle primitives for the rounded corners*
1,1,$1+$1,$2,$3*
1,1,$1+$1,$4,$5*
1,1,$1+$1,$6,$7*
1,1,$1+$1,$8,$9*
0 Add four rect primitives between the rounded corners*
20,1,$1+$1,$2,$3,$4,$5,0*
20,1,$1+$1,$4,$5,$6,$7,0*
20,1,$1+$1,$6,$7,$8,$9,0*
20,1,$1+$1,$8,$9,$2,$3,0*%
%AMFreePoly0*
4,1,7,0.750000,-0.750000,-0.750000,-0.750000,-0.750000,-0.050000,-0.050000,-0.050000,-0.050000,0.750000,0.750000,0.750000,0.750000,-0.750000,0.750000,-0.750000,$1*%
%AMFreePoly1*
4,1,7,0.050000,-0.050000,0.750000,-0.050000,0.750000,-0.750000,-0.750000,-0.750000,-0.750000,0.750000,0.050000,0.750000,0.050000,-0.050000,0.050000,-0.050000,$1*%
G04 Aperture macros list end*
%ADD10C,0.000000*%
%ADD11RoundRect,0.135000X-0.135000X-0.185000X0.135000X-0.185000X0.135000X0.185000X-0.135000X0.185000X0*%
%ADD12R,3.000000X1.400000*%
%ADD13RoundRect,0.250000X0.450000X-0.262500X0.450000X0.262500X-0.450000X0.262500X-0.450000X-0.262500X0*%
%ADD14RoundRect,0.250000X-0.450000X0.262500X-0.450000X-0.262500X0.450000X-0.262500X0.450000X0.262500X0*%
%ADD15R,0.900000X0.900000*%
%ADD16R,1.500000X0.900000*%
%ADD17R,0.900000X1.500000*%
%ADD18RoundRect,0.140000X-0.140000X-0.170000X0.140000X-0.170000X0.140000X0.170000X-0.140000X0.170000X0*%
%ADD19RoundRect,0.135000X0.185000X-0.135000X0.185000X0.135000X-0.185000X0.135000X-0.185000X-0.135000X0*%
%ADD20RoundRect,0.200000X-0.275000X0.200000X-0.275000X-0.200000X0.275000X-0.200000X0.275000X0.200000X0*%
%ADD21RoundRect,0.140000X-0.170000X0.140000X-0.170000X-0.140000X0.170000X-0.140000X0.170000X0.140000X0*%
%ADD22RoundRect,0.140000X0.170000X-0.140000X0.170000X0.140000X-0.170000X0.140000X-0.170000X-0.140000X0*%
%ADD23RoundRect,0.140000X0.140000X0.170000X-0.140000X0.170000X-0.140000X-0.170000X0.140000X-0.170000X0*%
%ADD24O,2.038000X0.574000*%
%ADD25RoundRect,0.135000X0.135000X0.185000X-0.135000X0.185000X-0.135000X-0.185000X0.135000X-0.185000X0*%
%ADD26RoundRect,0.225000X0.250000X-0.225000X0.250000X0.225000X-0.250000X0.225000X-0.250000X-0.225000X0*%
%ADD27RoundRect,0.250000X-0.250000X-0.475000X0.250000X-0.475000X0.250000X0.475000X-0.250000X0.475000X0*%
%ADD28RoundRect,0.225000X-0.250000X0.225000X-0.250000X-0.225000X0.250000X-0.225000X0.250000X0.225000X0*%
%ADD29RoundRect,0.200000X0.200000X0.275000X-0.200000X0.275000X-0.200000X-0.275000X0.200000X-0.275000X0*%
%ADD30RoundRect,0.250000X0.262500X0.450000X-0.262500X0.450000X-0.262500X-0.450000X0.262500X-0.450000X0*%
%ADD31RoundRect,0.225000X0.225000X0.250000X-0.225000X0.250000X-0.225000X-0.250000X0.225000X-0.250000X0*%
%ADD32R,0.300000X0.800000*%
%ADD33R,0.800000X0.300000*%
%ADD34R,6.000000X6.000000*%
%ADD35RoundRect,0.250000X-0.262500X-0.450000X0.262500X-0.450000X0.262500X0.450000X-0.262500X0.450000X0*%
%ADD36R,0.900000X0.280000*%
%ADD37R,0.280000X0.900000*%
%ADD38R,3.700000X3.700000*%
%ADD39R,1.194000X0.838000*%
%ADD40R,0.838000X0.838000*%
%ADD41RoundRect,0.243750X0.243750X0.456250X-0.243750X0.456250X-0.243750X-0.456250X0.243750X-0.456250X0*%
%ADD42R,1.000000X1.200000*%
%ADD43RoundRect,0.250000X0.475000X-0.250000X0.475000X0.250000X-0.475000X0.250000X-0.475000X-0.250000X0*%
%ADD44R,1.200000X1.200000*%
%ADD45FreePoly0,90.000000*%
%ADD46FreePoly1,90.000000*%
%ADD47RoundRect,0.135000X-0.185000X0.135000X-0.185000X-0.135000X0.185000X-0.135000X0.185000X0.135000X0*%
%ADD48RoundRect,0.250000X-0.475000X0.250000X-0.475000X-0.250000X0.475000X-0.250000X0.475000X0.250000X0*%
%ADD49RoundRect,0.243750X-0.243750X-0.456250X0.243750X-0.456250X0.243750X0.456250X-0.243750X0.456250X0*%
%ADD50R,0.800000X3.400000*%
%ADD51RoundRect,0.243750X0.456250X-0.243750X0.456250X0.243750X-0.456250X0.243750X-0.456250X-0.243750X0*%
%ADD52FreePoly0,270.000000*%
%ADD53FreePoly1,270.000000*%
%ADD54R,1.100000X2.500000*%
%ADD55R,3.600000X2.340000*%
%ADD56R,0.600000X1.240000*%
%ADD57R,0.300000X1.240000*%
G04 APERTURE END LIST*
D10*
%TO.C,U3*%
G36*
X62121200Y-60073600D02*
G01*
X61221200Y-60073600D01*
X61221200Y-59793600D01*
X62121200Y-59793600D01*
X62121200Y-60073600D01*
G37*
G36*
X62121200Y-60574100D02*
G01*
X61221200Y-60574100D01*
X61221200Y-60294100D01*
X62121200Y-60294100D01*
X62121200Y-60574100D01*
G37*
G36*
X62121200Y-61074600D02*
G01*
X61221200Y-61074600D01*
X61221200Y-60794600D01*
X62121200Y-60794600D01*
X62121200Y-61074600D01*
G37*
G36*
X62121200Y-61574600D02*
G01*
X61221200Y-61574600D01*
X61221200Y-61294600D01*
X62121200Y-61294600D01*
X62121200Y-61574600D01*
G37*
G36*
X62121200Y-62072600D02*
G01*
X61221200Y-62072600D01*
X61221200Y-61792600D01*
X62121200Y-61792600D01*
X62121200Y-62072600D01*
G37*
G36*
X62121200Y-62573100D02*
G01*
X61221200Y-62573100D01*
X61221200Y-62293100D01*
X62121200Y-62293100D01*
X62121200Y-62573100D01*
G37*
G36*
X62121200Y-63073600D02*
G01*
X61221200Y-63073600D01*
X61221200Y-62793600D01*
X62121200Y-62793600D01*
X62121200Y-63073600D01*
G37*
G36*
X62121200Y-63573600D02*
G01*
X61221200Y-63573600D01*
X61221200Y-63293600D01*
X62121200Y-63293600D01*
X62121200Y-63573600D01*
G37*
G36*
X62611200Y-59583600D02*
G01*
X62331200Y-59583600D01*
X62331200Y-58683600D01*
X62611200Y-58683600D01*
X62611200Y-59583600D01*
G37*
G36*
X62611200Y-64684100D02*
G01*
X62331200Y-64684100D01*
X62331200Y-63784100D01*
X62611200Y-63784100D01*
X62611200Y-64684100D01*
G37*
G36*
X65701200Y-63163600D02*
G01*
X62741200Y-63163600D01*
X62741200Y-60203600D01*
X65701200Y-60203600D01*
X65701200Y-63163600D01*
G37*
G36*
X63111700Y-59583600D02*
G01*
X62831700Y-59583600D01*
X62831700Y-58683600D01*
X63111700Y-58683600D01*
X63111700Y-59583600D01*
G37*
G36*
X63111700Y-64684100D02*
G01*
X62831700Y-64684100D01*
X62831700Y-63784100D01*
X63111700Y-63784100D01*
X63111700Y-64684100D01*
G37*
G36*
X63612200Y-59583600D02*
G01*
X63331700Y-59583600D01*
X63331700Y-58683600D01*
X63612200Y-58683600D01*
X63612200Y-59583600D01*
G37*
G36*
X63612200Y-64684100D02*
G01*
X63331700Y-64684100D01*
X63331700Y-63784100D01*
X63612200Y-63784100D01*
X63612200Y-64684100D01*
G37*
G36*
X64112200Y-59583600D02*
G01*
X63832200Y-59583600D01*
X63832200Y-58683600D01*
X64112200Y-58683600D01*
X64112200Y-59583600D01*
G37*
G36*
X64112200Y-64684100D02*
G01*
X63832200Y-64684100D01*
X63832200Y-63784100D01*
X64112200Y-63784100D01*
X64112200Y-64684100D01*
G37*
G36*
X64610200Y-59583600D02*
G01*
X64330200Y-59583600D01*
X64330200Y-58683600D01*
X64610200Y-58683600D01*
X64610200Y-59583600D01*
G37*
G36*
X64610200Y-64684100D02*
G01*
X64330200Y-64684100D01*
X64330200Y-63784100D01*
X64610200Y-63784100D01*
X64610200Y-64684100D01*
G37*
G36*
X65110700Y-59583600D02*
G01*
X64830700Y-59583600D01*
X64830700Y-58683600D01*
X65110700Y-58683600D01*
X65110700Y-59583600D01*
G37*
G36*
X65110700Y-64684100D02*
G01*
X64830700Y-64684100D01*
X64830700Y-63784100D01*
X65110700Y-63784100D01*
X65110700Y-64684100D01*
G37*
G36*
X65610700Y-59583600D02*
G01*
X65330700Y-59583600D01*
X65330700Y-58683600D01*
X65610700Y-58683600D01*
X65610700Y-59583600D01*
G37*
G36*
X65610700Y-64684100D02*
G01*
X65330700Y-64684100D01*
X65330700Y-63784100D01*
X65610700Y-63784100D01*
X65610700Y-64684100D01*
G37*
G36*
X66111200Y-59583600D02*
G01*
X65831200Y-59583600D01*
X65831200Y-58683600D01*
X66111200Y-58683600D01*
X66111200Y-59583600D01*
G37*
G36*
X66111200Y-64683600D02*
G01*
X65831200Y-64683600D01*
X65831200Y-63784100D01*
X66111200Y-63784100D01*
X66111200Y-64683600D01*
G37*
G36*
X67221200Y-60073600D02*
G01*
X66321200Y-60073600D01*
X66321200Y-59793600D01*
X67221200Y-59793600D01*
X67221200Y-60073600D01*
G37*
G36*
X67221200Y-60574100D02*
G01*
X66321200Y-60574100D01*
X66321200Y-60294100D01*
X67221200Y-60294100D01*
X67221200Y-60574100D01*
G37*
G36*
X67221200Y-61074600D02*
G01*
X66321200Y-61074600D01*
X66321200Y-60794600D01*
X67221200Y-60794600D01*
X67221200Y-61074600D01*
G37*
G36*
X67221200Y-61574600D02*
G01*
X66321200Y-61574600D01*
X66321200Y-61294600D01*
X67221200Y-61294600D01*
X67221200Y-61574600D01*
G37*
G36*
X67221200Y-62072600D02*
G01*
X66321200Y-62072600D01*
X66321200Y-61792600D01*
X67221200Y-61792600D01*
X67221200Y-62072600D01*
G37*
G36*
X67221200Y-62573100D02*
G01*
X66321200Y-62573100D01*
X66321200Y-62293100D01*
X67221200Y-62293100D01*
X67221200Y-62573100D01*
G37*
G36*
X67221200Y-63073600D02*
G01*
X66321200Y-63073600D01*
X66321200Y-62793600D01*
X67221200Y-62793600D01*
X67221200Y-63073600D01*
G37*
G36*
X67221200Y-63573600D02*
G01*
X66321200Y-63573600D01*
X66321200Y-63293600D01*
X67221200Y-63293600D01*
X67221200Y-63573600D01*
G37*
%TO.C,U18*%
G36*
X116246200Y-79166000D02*
G01*
X115046200Y-79166000D01*
X115046200Y-77966000D01*
X116246200Y-77966000D01*
X116246200Y-79166000D01*
G37*
G36*
X116246200Y-74966000D02*
G01*
X115046200Y-74966000D01*
X115046200Y-73766000D01*
X116246200Y-73766000D01*
X116246200Y-74966000D01*
G37*
G36*
X118946200Y-79866000D02*
G01*
X118946200Y-80666000D01*
X118101700Y-80666000D01*
X118082700Y-80672000D01*
X118058200Y-80678500D01*
X118033700Y-80683500D01*
X118008700Y-80687000D01*
X117983700Y-80689500D01*
X117958700Y-80691000D01*
X117933700Y-80691000D01*
X117908700Y-80689500D01*
X117883700Y-80687000D01*
X117858700Y-80683500D01*
X117834200Y-80678500D01*
X117809700Y-80672000D01*
X117790700Y-80666000D01*
X117446200Y-80666000D01*
X117446200Y-79866000D01*
X117566200Y-79866000D01*
X117569200Y-79862500D01*
X117586200Y-79844000D01*
X117604200Y-79826500D01*
X117622700Y-79810000D01*
X117642200Y-79794000D01*
X117662700Y-79779000D01*
X117683700Y-79765500D01*
X117705200Y-79753000D01*
X117727700Y-79741500D01*
X117750700Y-79731000D01*
X117774200Y-79721500D01*
X117797700Y-79713500D01*
X117821700Y-79706500D01*
X117846200Y-79701000D01*
X117871200Y-79696500D01*
X117896200Y-79693500D01*
X117921200Y-79691500D01*
X117946200Y-79691000D01*
X117971200Y-79691500D01*
X117996700Y-79693500D01*
X118021200Y-79696500D01*
X118046200Y-79701000D01*
X118070700Y-79706500D01*
X118094700Y-79713500D01*
X118118700Y-79721500D01*
X118141700Y-79731000D01*
X118164700Y-79741500D01*
X118187200Y-79753000D01*
X118208700Y-79765500D01*
X118229700Y-79779000D01*
X118246200Y-79791000D01*
X118246200Y-79166000D01*
X118946200Y-79166000D01*
X118946200Y-79866000D01*
G37*
G36*
X117971200Y-72191500D02*
G01*
X117996700Y-72193500D01*
X118021200Y-72196500D01*
X118046200Y-72201000D01*
X118070700Y-72206500D01*
X118094700Y-72213500D01*
X118118700Y-72221500D01*
X118141700Y-72231000D01*
X118164700Y-72241500D01*
X118187200Y-72253000D01*
X118208700Y-72265500D01*
X118209200Y-72266000D01*
X118946200Y-72266000D01*
X118946200Y-73066000D01*
X118946200Y-73766000D01*
X118246200Y-73766000D01*
X118246200Y-73091000D01*
X118240200Y-73095500D01*
X118219700Y-73110000D01*
X118198200Y-73123000D01*
X118176200Y-73135000D01*
X118153700Y-73146000D01*
X118130200Y-73156000D01*
X118106700Y-73164500D01*
X118082700Y-73172000D01*
X118058200Y-73178500D01*
X118033700Y-73183500D01*
X118008700Y-73187000D01*
X117983700Y-73189500D01*
X117958700Y-73191000D01*
X117933700Y-73191000D01*
X117908700Y-73189500D01*
X117883700Y-73187000D01*
X117858700Y-73183500D01*
X117834200Y-73178500D01*
X117809700Y-73172000D01*
X117785700Y-73164500D01*
X117762200Y-73156000D01*
X117739200Y-73146000D01*
X117716700Y-73135000D01*
X117694700Y-73123000D01*
X117673200Y-73110000D01*
X117652200Y-73095500D01*
X117632200Y-73080000D01*
X117615700Y-73066000D01*
X117446200Y-73066000D01*
X117446200Y-72266000D01*
X117683200Y-72266000D01*
X117683700Y-72265500D01*
X117705200Y-72253000D01*
X117727700Y-72241500D01*
X117750700Y-72231000D01*
X117774200Y-72221500D01*
X117797700Y-72213500D01*
X117821700Y-72206500D01*
X117846200Y-72201000D01*
X117871200Y-72196500D01*
X117896200Y-72193500D01*
X117921200Y-72191500D01*
X117946200Y-72191000D01*
X117971200Y-72191500D01*
G37*
%TO.C,U2*%
G36*
X39261200Y-60066100D02*
G01*
X38361200Y-60066100D01*
X38361200Y-59786100D01*
X39261200Y-59786100D01*
X39261200Y-60066100D01*
G37*
G36*
X39261200Y-60566600D02*
G01*
X38361200Y-60566600D01*
X38361200Y-60286600D01*
X39261200Y-60286600D01*
X39261200Y-60566600D01*
G37*
G36*
X39261200Y-61067100D02*
G01*
X38361200Y-61067100D01*
X38361200Y-60787100D01*
X39261200Y-60787100D01*
X39261200Y-61067100D01*
G37*
G36*
X39261200Y-61567100D02*
G01*
X38361200Y-61567100D01*
X38361200Y-61287100D01*
X39261200Y-61287100D01*
X39261200Y-61567100D01*
G37*
G36*
X39261200Y-62065100D02*
G01*
X38361200Y-62065100D01*
X38361200Y-61785100D01*
X39261200Y-61785100D01*
X39261200Y-62065100D01*
G37*
G36*
X39261200Y-62565600D02*
G01*
X38361200Y-62565600D01*
X38361200Y-62285600D01*
X39261200Y-62285600D01*
X39261200Y-62565600D01*
G37*
G36*
X39261200Y-63066100D02*
G01*
X38361200Y-63066100D01*
X38361200Y-62786100D01*
X39261200Y-62786100D01*
X39261200Y-63066100D01*
G37*
G36*
X39261200Y-63566100D02*
G01*
X38361200Y-63566100D01*
X38361200Y-63286100D01*
X39261200Y-63286100D01*
X39261200Y-63566100D01*
G37*
G36*
X39751200Y-59576100D02*
G01*
X39471200Y-59576100D01*
X39471200Y-58676100D01*
X39751200Y-58676100D01*
X39751200Y-59576100D01*
G37*
G36*
X39751200Y-64676600D02*
G01*
X39471200Y-64676600D01*
X39471200Y-63776600D01*
X39751200Y-63776600D01*
X39751200Y-64676600D01*
G37*
G36*
X42841200Y-63156100D02*
G01*
X39881200Y-63156100D01*
X39881200Y-60196100D01*
X42841200Y-60196100D01*
X42841200Y-63156100D01*
G37*
G36*
X40251700Y-59576100D02*
G01*
X39971700Y-59576100D01*
X39971700Y-58676100D01*
X40251700Y-58676100D01*
X40251700Y-59576100D01*
G37*
G36*
X40251700Y-64676600D02*
G01*
X39971700Y-64676600D01*
X39971700Y-63776600D01*
X40251700Y-63776600D01*
X40251700Y-64676600D01*
G37*
G36*
X40752200Y-59576100D02*
G01*
X40471700Y-59576100D01*
X40471700Y-58676100D01*
X40752200Y-58676100D01*
X40752200Y-59576100D01*
G37*
G36*
X40752200Y-64676600D02*
G01*
X40471700Y-64676600D01*
X40471700Y-63776600D01*
X40752200Y-63776600D01*
X40752200Y-64676600D01*
G37*
G36*
X41252200Y-59576100D02*
G01*
X40972200Y-59576100D01*
X40972200Y-58676100D01*
X41252200Y-58676100D01*
X41252200Y-59576100D01*
G37*
G36*
X41252200Y-64676600D02*
G01*
X40972200Y-64676600D01*
X40972200Y-63776600D01*
X41252200Y-63776600D01*
X41252200Y-64676600D01*
G37*
G36*
X41750200Y-59576100D02*
G01*
X41470200Y-59576100D01*
X41470200Y-58676100D01*
X41750200Y-58676100D01*
X41750200Y-59576100D01*
G37*
G36*
X41750200Y-64676600D02*
G01*
X41470200Y-64676600D01*
X41470200Y-63776600D01*
X41750200Y-63776600D01*
X41750200Y-64676600D01*
G37*
G36*
X42250700Y-59576100D02*
G01*
X41970700Y-59576100D01*
X41970700Y-58676100D01*
X42250700Y-58676100D01*
X42250700Y-59576100D01*
G37*
G36*
X42250700Y-64676600D02*
G01*
X41970700Y-64676600D01*
X41970700Y-63776600D01*
X42250700Y-63776600D01*
X42250700Y-64676600D01*
G37*
G36*
X42750700Y-59576100D02*
G01*
X42470700Y-59576100D01*
X42470700Y-58676100D01*
X42750700Y-58676100D01*
X42750700Y-59576100D01*
G37*
G36*
X42750700Y-64676600D02*
G01*
X42470700Y-64676600D01*
X42470700Y-63776600D01*
X42750700Y-63776600D01*
X42750700Y-64676600D01*
G37*
G36*
X43251200Y-59576100D02*
G01*
X42971200Y-59576100D01*
X42971200Y-58676100D01*
X43251200Y-58676100D01*
X43251200Y-59576100D01*
G37*
G36*
X43251200Y-64676100D02*
G01*
X42971200Y-64676100D01*
X42971200Y-63776600D01*
X43251200Y-63776600D01*
X43251200Y-64676100D01*
G37*
G36*
X44361200Y-60066100D02*
G01*
X43461200Y-60066100D01*
X43461200Y-59786100D01*
X44361200Y-59786100D01*
X44361200Y-60066100D01*
G37*
G36*
X44361200Y-60566600D02*
G01*
X43461200Y-60566600D01*
X43461200Y-60286600D01*
X44361200Y-60286600D01*
X44361200Y-60566600D01*
G37*
G36*
X44361200Y-61067100D02*
G01*
X43461200Y-61067100D01*
X43461200Y-60787100D01*
X44361200Y-60787100D01*
X44361200Y-61067100D01*
G37*
G36*
X44361200Y-61567100D02*
G01*
X43461200Y-61567100D01*
X43461200Y-61287100D01*
X44361200Y-61287100D01*
X44361200Y-61567100D01*
G37*
G36*
X44361200Y-62065100D02*
G01*
X43461200Y-62065100D01*
X43461200Y-61785100D01*
X44361200Y-61785100D01*
X44361200Y-62065100D01*
G37*
G36*
X44361200Y-62565600D02*
G01*
X43461200Y-62565600D01*
X43461200Y-62285600D01*
X44361200Y-62285600D01*
X44361200Y-62565600D01*
G37*
G36*
X44361200Y-63066100D02*
G01*
X43461200Y-63066100D01*
X43461200Y-62786100D01*
X44361200Y-62786100D01*
X44361200Y-63066100D01*
G37*
G36*
X44361200Y-63566100D02*
G01*
X43461200Y-63566100D01*
X43461200Y-63286100D01*
X44361200Y-63286100D01*
X44361200Y-63566100D01*
G37*
%TO.C,U19*%
G36*
X117972550Y-81190900D02*
G01*
X117998050Y-81192900D01*
X118022550Y-81195900D01*
X118047550Y-81200400D01*
X118072050Y-81205900D01*
X118096050Y-81212900D01*
X118120050Y-81220900D01*
X118143050Y-81230400D01*
X118166050Y-81240900D01*
X118188550Y-81252400D01*
X118210050Y-81264900D01*
X118210550Y-81265400D01*
X118947550Y-81265400D01*
X118947550Y-82065400D01*
X118947550Y-82765400D01*
X118247550Y-82765400D01*
X118247550Y-82090400D01*
X118241550Y-82094900D01*
X118221050Y-82109400D01*
X118199550Y-82122400D01*
X118177550Y-82134400D01*
X118155050Y-82145400D01*
X118131550Y-82155400D01*
X118108050Y-82163900D01*
X118084050Y-82171400D01*
X118059550Y-82177900D01*
X118035050Y-82182900D01*
X118010050Y-82186400D01*
X117985050Y-82188900D01*
X117960050Y-82190400D01*
X117935050Y-82190400D01*
X117910050Y-82188900D01*
X117885050Y-82186400D01*
X117860050Y-82182900D01*
X117835550Y-82177900D01*
X117811050Y-82171400D01*
X117787050Y-82163900D01*
X117763550Y-82155400D01*
X117740550Y-82145400D01*
X117718050Y-82134400D01*
X117696050Y-82122400D01*
X117674550Y-82109400D01*
X117653550Y-82094900D01*
X117633550Y-82079400D01*
X117617050Y-82065400D01*
X117447550Y-82065400D01*
X117447550Y-81265400D01*
X117684550Y-81265400D01*
X117685050Y-81264900D01*
X117706550Y-81252400D01*
X117729050Y-81240900D01*
X117752050Y-81230400D01*
X117775550Y-81220900D01*
X117799050Y-81212900D01*
X117823050Y-81205900D01*
X117847550Y-81200400D01*
X117872550Y-81195900D01*
X117897550Y-81192900D01*
X117922550Y-81190900D01*
X117947550Y-81190400D01*
X117972550Y-81190900D01*
G37*
G36*
X118947550Y-88865400D02*
G01*
X118947550Y-89665400D01*
X118103050Y-89665400D01*
X118084050Y-89671400D01*
X118059550Y-89677900D01*
X118035050Y-89682900D01*
X118010050Y-89686400D01*
X117985050Y-89688900D01*
X117960050Y-89690400D01*
X117935050Y-89690400D01*
X117910050Y-89688900D01*
X117885050Y-89686400D01*
X117860050Y-89682900D01*
X117835550Y-89677900D01*
X117811050Y-89671400D01*
X117792050Y-89665400D01*
X117447550Y-89665400D01*
X117447550Y-88865400D01*
X117567550Y-88865400D01*
X117570550Y-88861900D01*
X117587550Y-88843400D01*
X117605550Y-88825900D01*
X117624050Y-88809400D01*
X117643550Y-88793400D01*
X117664050Y-88778400D01*
X117685050Y-88764900D01*
X117706550Y-88752400D01*
X117729050Y-88740900D01*
X117752050Y-88730400D01*
X117775550Y-88720900D01*
X117799050Y-88712900D01*
X117823050Y-88705900D01*
X117847550Y-88700400D01*
X117872550Y-88695900D01*
X117897550Y-88692900D01*
X117922550Y-88690900D01*
X117947550Y-88690400D01*
X117972550Y-88690900D01*
X117998050Y-88692900D01*
X118022550Y-88695900D01*
X118047550Y-88700400D01*
X118072050Y-88705900D01*
X118096050Y-88712900D01*
X118120050Y-88720900D01*
X118143050Y-88730400D01*
X118166050Y-88740900D01*
X118188550Y-88752400D01*
X118210050Y-88764900D01*
X118231050Y-88778400D01*
X118247550Y-88790400D01*
X118247550Y-88165400D01*
X118947550Y-88165400D01*
X118947550Y-88865400D01*
G37*
G36*
X116247550Y-83965400D02*
G01*
X115047550Y-83965400D01*
X115047550Y-82765400D01*
X116247550Y-82765400D01*
X116247550Y-83965400D01*
G37*
G36*
X116247550Y-88165400D02*
G01*
X115047550Y-88165400D01*
X115047550Y-86965400D01*
X116247550Y-86965400D01*
X116247550Y-88165400D01*
G37*
%TO.C,U7*%
G36*
X24423850Y-72015800D02*
G01*
X23223850Y-72015800D01*
X23223850Y-70815800D01*
X24423850Y-70815800D01*
X24423850Y-72015800D01*
G37*
G36*
X24423850Y-76215800D02*
G01*
X23223850Y-76215800D01*
X23223850Y-75015800D01*
X24423850Y-75015800D01*
X24423850Y-76215800D01*
G37*
G36*
X21561350Y-69292300D02*
G01*
X21586350Y-69294800D01*
X21611350Y-69298300D01*
X21635850Y-69303300D01*
X21660350Y-69309800D01*
X21679350Y-69315800D01*
X22023850Y-69315800D01*
X22023850Y-70115800D01*
X21903850Y-70115800D01*
X21900850Y-70119300D01*
X21883850Y-70137800D01*
X21865850Y-70155300D01*
X21847350Y-70171800D01*
X21827850Y-70187800D01*
X21807350Y-70202800D01*
X21786350Y-70216300D01*
X21764850Y-70228800D01*
X21742350Y-70240300D01*
X21719350Y-70250800D01*
X21695850Y-70260300D01*
X21672350Y-70268300D01*
X21648350Y-70275300D01*
X21623850Y-70280800D01*
X21598850Y-70285300D01*
X21573850Y-70288300D01*
X21548850Y-70290300D01*
X21523850Y-70290800D01*
X21498850Y-70290300D01*
X21473350Y-70288300D01*
X21448850Y-70285300D01*
X21423850Y-70280800D01*
X21399350Y-70275300D01*
X21375350Y-70268300D01*
X21351350Y-70260300D01*
X21328350Y-70250800D01*
X21305350Y-70240300D01*
X21282850Y-70228800D01*
X21261350Y-70216300D01*
X21240350Y-70202800D01*
X21223850Y-70190800D01*
X21223850Y-70815800D01*
X20523850Y-70815800D01*
X20523850Y-70115800D01*
X20523850Y-69315800D01*
X21368350Y-69315800D01*
X21387350Y-69309800D01*
X21411850Y-69303300D01*
X21436350Y-69298300D01*
X21461350Y-69294800D01*
X21486350Y-69292300D01*
X21511350Y-69290800D01*
X21536350Y-69290800D01*
X21561350Y-69292300D01*
G37*
G36*
X21223850Y-76890800D02*
G01*
X21229850Y-76886300D01*
X21250350Y-76871800D01*
X21271850Y-76858800D01*
X21293850Y-76846800D01*
X21316350Y-76835800D01*
X21339850Y-76825800D01*
X21363350Y-76817300D01*
X21387350Y-76809800D01*
X21411850Y-76803300D01*
X21436350Y-76798300D01*
X21461350Y-76794800D01*
X21486350Y-76792300D01*
X21511350Y-76790800D01*
X21536350Y-76790800D01*
X21561350Y-76792300D01*
X21586350Y-76794800D01*
X21611350Y-76798300D01*
X21635850Y-76803300D01*
X21660350Y-76809800D01*
X21684350Y-76817300D01*
X21707850Y-76825800D01*
X21730850Y-76835800D01*
X21753350Y-76846800D01*
X21775350Y-76858800D01*
X21796850Y-76871800D01*
X21817850Y-76886300D01*
X21837850Y-76901800D01*
X21854350Y-76915800D01*
X22023850Y-76915800D01*
X22023850Y-77715800D01*
X21786850Y-77715800D01*
X21786350Y-77716300D01*
X21764850Y-77728800D01*
X21742350Y-77740300D01*
X21719350Y-77750800D01*
X21695850Y-77760300D01*
X21672350Y-77768300D01*
X21648350Y-77775300D01*
X21623850Y-77780800D01*
X21598850Y-77785300D01*
X21573850Y-77788300D01*
X21548850Y-77790300D01*
X21523850Y-77790800D01*
X21498850Y-77790300D01*
X21473350Y-77788300D01*
X21448850Y-77785300D01*
X21423850Y-77780800D01*
X21399350Y-77775300D01*
X21375350Y-77768300D01*
X21351350Y-77760300D01*
X21328350Y-77750800D01*
X21305350Y-77740300D01*
X21282850Y-77728800D01*
X21261350Y-77716300D01*
X21260850Y-77715800D01*
X20523850Y-77715800D01*
X20523850Y-76915800D01*
X20523850Y-76215800D01*
X21223850Y-76215800D01*
X21223850Y-76890800D01*
G37*
%TO.C,U10*%
G36*
X106816000Y-93076000D02*
G01*
X106216000Y-93076000D01*
X106216000Y-91836000D01*
X106816000Y-91836000D01*
X106816000Y-93076000D01*
G37*
G36*
X107616000Y-93076000D02*
G01*
X107016000Y-93076000D01*
X107016000Y-91836000D01*
X107616000Y-91836000D01*
X107616000Y-93076000D01*
G37*
G36*
X108116000Y-93076000D02*
G01*
X107816000Y-93076000D01*
X107816000Y-91836000D01*
X108116000Y-91836000D01*
X108116000Y-93076000D01*
G37*
G36*
X108616000Y-93076000D02*
G01*
X108316000Y-93076000D01*
X108316000Y-91836000D01*
X108616000Y-91836000D01*
X108616000Y-93076000D01*
G37*
G36*
X109116000Y-93076000D02*
G01*
X108816000Y-93076000D01*
X108816000Y-91836000D01*
X109116000Y-91836000D01*
X109116000Y-93076000D01*
G37*
G36*
X109616000Y-93076000D02*
G01*
X109316000Y-93076000D01*
X109316000Y-91836000D01*
X109616000Y-91836000D01*
X109616000Y-93076000D01*
G37*
G36*
X110116000Y-93076000D02*
G01*
X109816000Y-93076000D01*
X109816000Y-91836000D01*
X110116000Y-91836000D01*
X110116000Y-93076000D01*
G37*
G36*
X110616000Y-93076000D02*
G01*
X110316000Y-93076000D01*
X110316000Y-91836000D01*
X110616000Y-91836000D01*
X110616000Y-93076000D01*
G37*
G36*
X111116000Y-93076000D02*
G01*
X110816000Y-93076000D01*
X110816000Y-91836000D01*
X111116000Y-91836000D01*
X111116000Y-93076000D01*
G37*
G36*
X111616000Y-93076000D02*
G01*
X111316000Y-93076000D01*
X111316000Y-91836000D01*
X111616000Y-91836000D01*
X111616000Y-93076000D01*
G37*
G36*
X112416000Y-93076000D02*
G01*
X111816000Y-93076000D01*
X111816000Y-91836000D01*
X112416000Y-91836000D01*
X112416000Y-93076000D01*
G37*
G36*
X113216000Y-93076000D02*
G01*
X112616000Y-93076000D01*
X112616000Y-91836000D01*
X113216000Y-91836000D01*
X113216000Y-93076000D01*
G37*
G36*
X105433500Y-92027500D02*
G01*
X105458000Y-92030000D01*
X105483000Y-92033500D01*
X105507000Y-92038500D01*
X105531500Y-92044500D01*
X105555000Y-92052000D01*
X105578500Y-92060500D01*
X105601500Y-92070500D01*
X105624000Y-92081000D01*
X105646000Y-92093000D01*
X105667000Y-92106000D01*
X105688000Y-92120000D01*
X105707500Y-92135000D01*
X105727000Y-92151000D01*
X105745000Y-92168000D01*
X105762500Y-92186000D01*
X105779000Y-92204500D01*
X105794500Y-92224000D01*
X105809000Y-92244500D01*
X105822500Y-92265500D01*
X105835000Y-92287000D01*
X105846500Y-92309000D01*
X105856500Y-92332000D01*
X105866000Y-92355000D01*
X105874000Y-92378500D01*
X105880500Y-92402500D01*
X105886000Y-92427000D01*
X105890500Y-92451500D01*
X105893500Y-92476000D01*
X105895500Y-92501000D01*
X105896000Y-92526000D01*
X105896000Y-93626000D01*
X105895500Y-93651000D01*
X105893500Y-93676000D01*
X105890500Y-93700500D01*
X105886000Y-93725000D01*
X105880500Y-93749500D01*
X105874000Y-93773500D01*
X105866000Y-93797000D01*
X105856500Y-93820000D01*
X105846500Y-93843000D01*
X105835000Y-93865000D01*
X105822500Y-93886500D01*
X105809000Y-93907500D01*
X105794500Y-93928000D01*
X105779000Y-93947500D01*
X105762500Y-93966000D01*
X105745000Y-93984000D01*
X105727000Y-94001000D01*
X105707500Y-94017000D01*
X105688000Y-94032000D01*
X105667000Y-94046000D01*
X105646000Y-94059000D01*
X105624000Y-94071000D01*
X105601500Y-94082000D01*
X105578500Y-94091500D01*
X105555000Y-94100000D01*
X105531500Y-94107500D01*
X105507000Y-94113500D01*
X105483000Y-94118500D01*
X105458000Y-94122000D01*
X105433500Y-94124500D01*
X105408500Y-94126000D01*
X105383500Y-94126000D01*
X105358500Y-94124500D01*
X105334000Y-94122000D01*
X105309000Y-94118500D01*
X105284500Y-94113500D01*
X105260500Y-94107500D01*
X105236500Y-94100000D01*
X105213500Y-94091500D01*
X105190500Y-94082000D01*
X105168000Y-94071000D01*
X105146000Y-94059000D01*
X105124500Y-94046000D01*
X105104000Y-94032000D01*
X105084500Y-94017000D01*
X105065000Y-94001000D01*
X105047000Y-93984000D01*
X105029500Y-93966000D01*
X105013000Y-93947500D01*
X104997500Y-93928000D01*
X104983000Y-93907500D01*
X104969500Y-93886500D01*
X104957000Y-93865000D01*
X104945500Y-93843000D01*
X104935500Y-93820000D01*
X104926000Y-93797000D01*
X104918000Y-93773500D01*
X104911500Y-93749500D01*
X104906000Y-93725000D01*
X104901500Y-93700500D01*
X104898500Y-93676000D01*
X104896500Y-93651000D01*
X104896000Y-93626000D01*
X104896000Y-92526000D01*
X104896500Y-92501000D01*
X104898500Y-92476000D01*
X104901500Y-92451500D01*
X104906000Y-92427000D01*
X104911500Y-92402500D01*
X104918000Y-92378500D01*
X104926000Y-92355000D01*
X104935500Y-92332000D01*
X104945500Y-92309000D01*
X104957000Y-92287000D01*
X104969500Y-92265500D01*
X104983000Y-92244500D01*
X104997500Y-92224000D01*
X105013000Y-92204500D01*
X105029500Y-92186000D01*
X105047000Y-92168000D01*
X105065000Y-92151000D01*
X105084500Y-92135000D01*
X105104000Y-92120000D01*
X105124500Y-92106000D01*
X105146000Y-92093000D01*
X105168000Y-92081000D01*
X105190500Y-92070500D01*
X105213500Y-92060500D01*
X105236500Y-92052000D01*
X105260500Y-92044500D01*
X105284500Y-92038500D01*
X105309000Y-92033500D01*
X105334000Y-92030000D01*
X105358500Y-92027500D01*
X105383500Y-92026000D01*
X105408500Y-92026000D01*
X105433500Y-92027500D01*
G37*
G36*
X105433500Y-96357500D02*
G01*
X105458000Y-96360000D01*
X105483000Y-96363500D01*
X105507000Y-96368500D01*
X105531500Y-96374500D01*
X105555000Y-96382000D01*
X105578500Y-96390500D01*
X105601500Y-96400500D01*
X105624000Y-96411000D01*
X105646000Y-96423000D01*
X105667000Y-96436000D01*
X105688000Y-96450000D01*
X105707500Y-96465000D01*
X105727000Y-96481000D01*
X105745000Y-96498000D01*
X105762500Y-96516000D01*
X105779000Y-96534500D01*
X105794500Y-96554000D01*
X105809000Y-96574500D01*
X105822500Y-96595500D01*
X105835000Y-96617000D01*
X105846500Y-96639000D01*
X105856500Y-96662000D01*
X105866000Y-96685000D01*
X105874000Y-96708500D01*
X105880500Y-96732500D01*
X105886000Y-96757000D01*
X105890500Y-96781500D01*
X105893500Y-96806500D01*
X105895500Y-96831000D01*
X105896000Y-96856000D01*
X105896000Y-97656000D01*
X105895500Y-97681000D01*
X105893500Y-97706000D01*
X105890500Y-97730500D01*
X105886000Y-97755000D01*
X105880500Y-97779500D01*
X105874000Y-97803500D01*
X105866000Y-97827000D01*
X105856500Y-97850500D01*
X105846500Y-97873000D01*
X105835000Y-97895000D01*
X105822500Y-97917000D01*
X105809000Y-97938000D01*
X105794500Y-97958000D01*
X105779000Y-97977500D01*
X105762500Y-97996000D01*
X105745000Y-98014000D01*
X105727000Y-98031000D01*
X105707500Y-98047000D01*
X105688000Y-98062000D01*
X105667000Y-98076000D01*
X105646000Y-98089000D01*
X105624000Y-98101000D01*
X105601500Y-98112000D01*
X105578500Y-98121500D01*
X105555000Y-98130000D01*
X105531500Y-98137500D01*
X105507000Y-98143500D01*
X105483000Y-98148500D01*
X105458000Y-98152000D01*
X105433500Y-98154500D01*
X105408500Y-98156000D01*
X105383500Y-98156000D01*
X105358500Y-98154500D01*
X105334000Y-98152000D01*
X105309000Y-98148500D01*
X105284500Y-98143500D01*
X105260500Y-98137500D01*
X105236500Y-98130000D01*
X105213500Y-98121500D01*
X105190500Y-98112000D01*
X105168000Y-98101000D01*
X105146000Y-98089000D01*
X105124500Y-98076000D01*
X105104000Y-98062000D01*
X105084500Y-98047000D01*
X105065000Y-98031000D01*
X105047000Y-98014000D01*
X105029500Y-97996000D01*
X105013000Y-97977500D01*
X104997500Y-97958000D01*
X104983000Y-97938000D01*
X104969500Y-97917000D01*
X104957000Y-97895000D01*
X104945500Y-97873000D01*
X104935500Y-97850500D01*
X104926000Y-97827000D01*
X104918000Y-97803500D01*
X104911500Y-97779500D01*
X104906000Y-97755000D01*
X104901500Y-97730500D01*
X104898500Y-97706000D01*
X104896500Y-97681000D01*
X104896000Y-97656000D01*
X104896000Y-96856000D01*
X104896500Y-96831000D01*
X104898500Y-96806500D01*
X104901500Y-96781500D01*
X104906000Y-96757000D01*
X104911500Y-96732500D01*
X104918000Y-96708500D01*
X104926000Y-96685000D01*
X104935500Y-96662000D01*
X104945500Y-96639000D01*
X104957000Y-96617000D01*
X104969500Y-96595500D01*
X104983000Y-96574500D01*
X104997500Y-96554000D01*
X105013000Y-96534500D01*
X105029500Y-96516000D01*
X105047000Y-96498000D01*
X105065000Y-96481000D01*
X105084500Y-96465000D01*
X105104000Y-96450000D01*
X105124500Y-96436000D01*
X105146000Y-96423000D01*
X105168000Y-96411000D01*
X105190500Y-96400500D01*
X105213500Y-96390500D01*
X105236500Y-96382000D01*
X105260500Y-96374500D01*
X105284500Y-96368500D01*
X105309000Y-96363500D01*
X105334000Y-96360000D01*
X105358500Y-96357500D01*
X105383500Y-96356000D01*
X105408500Y-96356000D01*
X105433500Y-96357500D01*
G37*
G36*
X114073500Y-92027500D02*
G01*
X114098000Y-92030000D01*
X114123000Y-92033500D01*
X114147500Y-92038500D01*
X114171500Y-92044500D01*
X114195500Y-92052000D01*
X114218500Y-92060500D01*
X114241500Y-92070500D01*
X114264000Y-92081000D01*
X114286000Y-92093000D01*
X114307500Y-92106000D01*
X114328000Y-92120000D01*
X114348000Y-92135000D01*
X114367000Y-92151000D01*
X114385000Y-92168000D01*
X114402500Y-92186000D01*
X114419000Y-92204500D01*
X114434500Y-92224000D01*
X114449000Y-92244500D01*
X114462500Y-92265500D01*
X114475000Y-92287000D01*
X114486500Y-92309000D01*
X114497000Y-92332000D01*
X114506000Y-92355000D01*
X114514000Y-92378500D01*
X114520500Y-92402500D01*
X114526000Y-92427000D01*
X114530500Y-92451500D01*
X114533500Y-92476000D01*
X114535500Y-92501000D01*
X114536000Y-92526000D01*
X114536000Y-93626000D01*
X114535500Y-93651000D01*
X114533500Y-93676000D01*
X114530500Y-93700500D01*
X114526000Y-93725000D01*
X114520500Y-93749500D01*
X114514000Y-93773500D01*
X114506000Y-93797000D01*
X114497000Y-93820000D01*
X114486500Y-93843000D01*
X114475000Y-93865000D01*
X114462500Y-93886500D01*
X114449000Y-93907500D01*
X114434500Y-93928000D01*
X114419000Y-93947500D01*
X114402500Y-93966000D01*
X114385000Y-93984000D01*
X114367000Y-94001000D01*
X114348000Y-94017000D01*
X114328000Y-94032000D01*
X114307500Y-94046000D01*
X114286000Y-94059000D01*
X114264000Y-94071000D01*
X114241500Y-94082000D01*
X114218500Y-94091500D01*
X114195500Y-94100000D01*
X114171500Y-94107500D01*
X114147500Y-94113500D01*
X114123000Y-94118500D01*
X114098000Y-94122000D01*
X114073500Y-94124500D01*
X114048500Y-94126000D01*
X114023500Y-94126000D01*
X113998500Y-94124500D01*
X113974000Y-94122000D01*
X113949500Y-94118500D01*
X113925000Y-94113500D01*
X113900500Y-94107500D01*
X113877000Y-94100000D01*
X113853500Y-94091500D01*
X113830500Y-94082000D01*
X113808000Y-94071000D01*
X113786000Y-94059000D01*
X113765000Y-94046000D01*
X113744000Y-94032000D01*
X113724500Y-94017000D01*
X113705000Y-94001000D01*
X113687000Y-93984000D01*
X113669500Y-93966000D01*
X113653000Y-93947500D01*
X113637500Y-93928000D01*
X113623000Y-93907500D01*
X113609500Y-93886500D01*
X113597000Y-93865000D01*
X113585500Y-93843000D01*
X113575500Y-93820000D01*
X113566000Y-93797000D01*
X113558500Y-93773500D01*
X113551500Y-93749500D01*
X113546000Y-93725000D01*
X113541500Y-93700500D01*
X113538500Y-93676000D01*
X113536500Y-93651000D01*
X113536000Y-93626000D01*
X113536000Y-92526000D01*
X113536500Y-92501000D01*
X113538500Y-92476000D01*
X113541500Y-92451500D01*
X113546000Y-92427000D01*
X113551500Y-92402500D01*
X113558500Y-92378500D01*
X113566000Y-92355000D01*
X113575500Y-92332000D01*
X113585500Y-92309000D01*
X113597000Y-92287000D01*
X113609500Y-92265500D01*
X113623000Y-92244500D01*
X113637500Y-92224000D01*
X113653000Y-92204500D01*
X113669500Y-92186000D01*
X113687000Y-92168000D01*
X113705000Y-92151000D01*
X113724500Y-92135000D01*
X113744000Y-92120000D01*
X113765000Y-92106000D01*
X113786000Y-92093000D01*
X113808000Y-92081000D01*
X113830500Y-92070500D01*
X113853500Y-92060500D01*
X113877000Y-92052000D01*
X113900500Y-92044500D01*
X113925000Y-92038500D01*
X113949500Y-92033500D01*
X113974000Y-92030000D01*
X113998500Y-92027500D01*
X114023500Y-92026000D01*
X114048500Y-92026000D01*
X114073500Y-92027500D01*
G37*
G36*
X114073500Y-96357500D02*
G01*
X114098000Y-96360000D01*
X114123000Y-96363500D01*
X114147500Y-96368500D01*
X114171500Y-96374500D01*
X114195500Y-96382000D01*
X114218500Y-96390500D01*
X114241500Y-96400500D01*
X114264000Y-96411000D01*
X114286000Y-96423000D01*
X114307500Y-96436000D01*
X114328000Y-96450000D01*
X114348000Y-96465000D01*
X114367000Y-96481000D01*
X114385000Y-96498000D01*
X114402500Y-96516000D01*
X114419000Y-96534500D01*
X114434500Y-96554000D01*
X114449000Y-96574500D01*
X114462500Y-96595500D01*
X114475000Y-96617000D01*
X114486500Y-96639000D01*
X114497000Y-96662000D01*
X114506000Y-96685000D01*
X114514000Y-96708500D01*
X114520500Y-96732500D01*
X114526000Y-96757000D01*
X114530500Y-96781500D01*
X114533500Y-96806500D01*
X114535500Y-96831000D01*
X114536000Y-96856000D01*
X114536000Y-97656000D01*
X114535500Y-97681000D01*
X114533500Y-97706000D01*
X114530500Y-97730500D01*
X114526000Y-97755000D01*
X114520500Y-97779500D01*
X114514000Y-97803500D01*
X114506000Y-97827000D01*
X114497000Y-97850500D01*
X114486500Y-97873000D01*
X114475000Y-97895000D01*
X114462500Y-97917000D01*
X114449000Y-97938000D01*
X114434500Y-97958000D01*
X114419000Y-97977500D01*
X114402500Y-97996000D01*
X114385000Y-98014000D01*
X114367000Y-98031000D01*
X114348000Y-98047000D01*
X114328000Y-98062000D01*
X114307500Y-98076000D01*
X114286000Y-98089000D01*
X114264000Y-98101000D01*
X114241500Y-98112000D01*
X114218500Y-98121500D01*
X114195500Y-98130000D01*
X114171500Y-98137500D01*
X114147500Y-98143500D01*
X114123000Y-98148500D01*
X114098000Y-98152000D01*
X114073500Y-98154500D01*
X114048500Y-98156000D01*
X114023500Y-98156000D01*
X113998500Y-98154500D01*
X113974000Y-98152000D01*
X113949500Y-98148500D01*
X113925000Y-98143500D01*
X113900500Y-98137500D01*
X113877000Y-98130000D01*
X113853500Y-98121500D01*
X113830500Y-98112000D01*
X113808000Y-98101000D01*
X113786000Y-98089000D01*
X113765000Y-98076000D01*
X113744000Y-98062000D01*
X113724500Y-98047000D01*
X113705000Y-98031000D01*
X113687000Y-98014000D01*
X113669500Y-97996000D01*
X113653000Y-97977500D01*
X113637500Y-97958000D01*
X113623000Y-97938000D01*
X113609500Y-97917000D01*
X113597000Y-97895000D01*
X113585500Y-97873000D01*
X113575500Y-97850500D01*
X113566000Y-97827000D01*
X113558500Y-97803500D01*
X113551500Y-97779500D01*
X113546000Y-97755000D01*
X113541500Y-97730500D01*
X113538500Y-97706000D01*
X113536500Y-97681000D01*
X113536000Y-97656000D01*
X113536000Y-96856000D01*
X113536500Y-96831000D01*
X113538500Y-96806500D01*
X113541500Y-96781500D01*
X113546000Y-96757000D01*
X113551500Y-96732500D01*
X113558500Y-96708500D01*
X113566000Y-96685000D01*
X113575500Y-96662000D01*
X113585500Y-96639000D01*
X113597000Y-96617000D01*
X113609500Y-96595500D01*
X113623000Y-96574500D01*
X113637500Y-96554000D01*
X113653000Y-96534500D01*
X113669500Y-96516000D01*
X113687000Y-96498000D01*
X113705000Y-96481000D01*
X113724500Y-96465000D01*
X113744000Y-96450000D01*
X113765000Y-96436000D01*
X113786000Y-96423000D01*
X113808000Y-96411000D01*
X113830500Y-96400500D01*
X113853500Y-96390500D01*
X113877000Y-96382000D01*
X113900500Y-96374500D01*
X113925000Y-96368500D01*
X113949500Y-96363500D01*
X113974000Y-96360000D01*
X113998500Y-96357500D01*
X114023500Y-96356000D01*
X114048500Y-96356000D01*
X114073500Y-96357500D01*
G37*
%TD*%
D11*
%TO.C,R76*%
X113076800Y-72059800D03*
X114096800Y-72059800D03*
%TD*%
D12*
%TO.C,U16*%
X106207800Y-31468000D03*
X113207800Y-23368000D03*
X113207800Y-26368000D03*
X113207800Y-30368000D03*
%TD*%
%TO.C,U14*%
X95717600Y-31468000D03*
X102717600Y-23368000D03*
X102717600Y-26368000D03*
X102717600Y-30368000D03*
%TD*%
%TO.C,U15*%
X85227400Y-31468000D03*
X92227400Y-23368000D03*
X92227400Y-26368000D03*
X92227400Y-30368000D03*
%TD*%
%TO.C,U13*%
X74737200Y-31468000D03*
X81737200Y-23368000D03*
X81737200Y-26368000D03*
X81737200Y-30368000D03*
%TD*%
%TO.C,U12*%
X64247000Y-31468000D03*
X71247000Y-23368000D03*
X71247000Y-26368000D03*
X71247000Y-30368000D03*
%TD*%
%TO.C,U9*%
X53756800Y-31468000D03*
X60756800Y-23368000D03*
X60756800Y-26368000D03*
X60756800Y-30368000D03*
%TD*%
%TO.C,U11*%
X43241200Y-31468000D03*
X50241200Y-23368000D03*
X50241200Y-26368000D03*
X50241200Y-30368000D03*
%TD*%
%TO.C,U8*%
X32751000Y-31468000D03*
X39751000Y-23368000D03*
X39751000Y-26368000D03*
X39751000Y-30368000D03*
%TD*%
D13*
%TO.C,R23*%
X109270800Y-84179400D03*
X109270800Y-86004400D03*
%TD*%
D14*
%TO.C,R24*%
X111175800Y-86004400D03*
X111175800Y-84179400D03*
%TD*%
D15*
%TO.C,U17*%
X90627200Y-89300400D03*
X90627200Y-90700400D03*
X90627200Y-92100400D03*
X92027200Y-89300400D03*
X92027200Y-90700400D03*
X92027200Y-92100400D03*
X93427200Y-89300400D03*
X93427200Y-90700400D03*
X93427200Y-92100400D03*
D16*
X81777200Y-98420400D03*
X81777200Y-97150400D03*
X81777200Y-95880400D03*
X81777200Y-94610400D03*
X81777200Y-93340400D03*
X81777200Y-92070400D03*
X81777200Y-90800400D03*
X81777200Y-89530400D03*
X81777200Y-88260400D03*
X81777200Y-86990400D03*
X81777200Y-85720400D03*
X81777200Y-84450400D03*
X81777200Y-83180400D03*
X81777200Y-81910400D03*
D17*
X83542200Y-80660400D03*
X84812200Y-80630400D03*
X86082200Y-80630400D03*
X87352200Y-80630400D03*
X88622200Y-80630400D03*
X89892200Y-80630400D03*
X91162200Y-80630400D03*
X92432200Y-80630400D03*
X93702200Y-80630400D03*
X94972200Y-80630400D03*
X96242200Y-80630400D03*
X97512200Y-80630400D03*
D16*
X99277200Y-81910400D03*
X99277200Y-83180400D03*
X99277200Y-84450400D03*
X99277200Y-85720400D03*
X99277200Y-86990400D03*
X99277200Y-88260400D03*
X99277200Y-89530400D03*
X99277200Y-90800400D03*
X99277200Y-92070400D03*
X99277200Y-93340400D03*
X99277200Y-94610400D03*
X99277200Y-95880400D03*
X99277200Y-97150400D03*
X99277200Y-98420400D03*
%TD*%
D11*
%TO.C,R36*%
X37363400Y-41884600D03*
X38383400Y-41884600D03*
%TD*%
D18*
%TO.C,C8*%
X59639200Y-90754200D03*
X60599200Y-90754200D03*
%TD*%
D19*
%TO.C,R27*%
X58597800Y-68251800D03*
X58597800Y-67231800D03*
%TD*%
D20*
%TO.C,R53*%
X47218600Y-35356800D03*
X47218600Y-37006800D03*
%TD*%
D18*
%TO.C,C18*%
X59568200Y-60426600D03*
X60528200Y-60426600D03*
%TD*%
D21*
%TO.C,C68*%
X41681400Y-50772000D03*
X41681400Y-51732000D03*
%TD*%
D22*
%TO.C,C44*%
X43942000Y-79395200D03*
X43942000Y-78435200D03*
%TD*%
D18*
%TO.C,C30*%
X36708200Y-61925200D03*
X37668200Y-61925200D03*
%TD*%
D23*
%TO.C,C42*%
X55930800Y-91871800D03*
X54970800Y-91871800D03*
%TD*%
D24*
%TO.C,U23*%
X104061000Y-38923200D03*
X104061000Y-40193200D03*
X104061000Y-41463200D03*
X104061000Y-42733200D03*
X104061000Y-44003200D03*
X104061000Y-45273200D03*
X104061000Y-46543200D03*
X109299000Y-46543200D03*
X109299000Y-45273200D03*
X109299000Y-44003200D03*
X109299000Y-42733200D03*
X109299000Y-41463200D03*
X109299000Y-40193200D03*
X109299000Y-38923200D03*
%TD*%
D19*
%TO.C,R13*%
X64566800Y-68076000D03*
X64566800Y-67056000D03*
%TD*%
D25*
%TO.C,R75*%
X112418400Y-39674800D03*
X111398400Y-39674800D03*
%TD*%
D13*
%TO.C,R17*%
X79832200Y-97155000D03*
X79832200Y-95330000D03*
%TD*%
D18*
%TO.C,C17*%
X36708200Y-60426600D03*
X37668200Y-60426600D03*
%TD*%
D25*
%TO.C,R64*%
X92104400Y-39522400D03*
X91084400Y-39522400D03*
%TD*%
D18*
%TO.C,C15*%
X36733600Y-57962800D03*
X37693600Y-57962800D03*
%TD*%
D26*
%TO.C,C25*%
X34594800Y-60605000D03*
X34594800Y-59055000D03*
%TD*%
D22*
%TO.C,C54*%
X114198400Y-80721200D03*
X114198400Y-81681200D03*
%TD*%
D27*
%TO.C,C11*%
X23195200Y-43916600D03*
X25095200Y-43916600D03*
%TD*%
D21*
%TO.C,C9*%
X66167000Y-85295800D03*
X66167000Y-86255800D03*
%TD*%
D25*
%TO.C,R70*%
X49326800Y-41706800D03*
X48306800Y-41706800D03*
%TD*%
D21*
%TO.C,C36*%
X60629800Y-87584400D03*
X60629800Y-88544400D03*
%TD*%
D28*
%TO.C,C1*%
X49276000Y-61619800D03*
X49276000Y-63169800D03*
%TD*%
D22*
%TO.C,C67*%
X81737200Y-33802200D03*
X81737200Y-32842200D03*
%TD*%
D21*
%TO.C,C82*%
X44678600Y-50774600D03*
X44678600Y-51734600D03*
%TD*%
D26*
%TO.C,C34*%
X30073600Y-70891400D03*
X30073600Y-72441400D03*
%TD*%
D21*
%TO.C,C69*%
X61569600Y-50856000D03*
X61569600Y-51816000D03*
%TD*%
D19*
%TO.C,R15*%
X54991000Y-92934600D03*
X54991000Y-93954600D03*
%TD*%
D11*
%TO.C,R41*%
X100910200Y-42062400D03*
X101930200Y-42062400D03*
%TD*%
D21*
%TO.C,C20*%
X52705000Y-90926800D03*
X52705000Y-89966800D03*
%TD*%
D22*
%TO.C,C87*%
X113207800Y-33802200D03*
X113207800Y-32842200D03*
%TD*%
D29*
%TO.C,R35*%
X103580200Y-48056800D03*
X101930200Y-48056800D03*
%TD*%
D14*
%TO.C,R19*%
X30175200Y-61192400D03*
X30175200Y-63017400D03*
%TD*%
D22*
%TO.C,C61*%
X83286600Y-51861600D03*
X83286600Y-50901600D03*
%TD*%
D25*
%TO.C,R74*%
X71780400Y-41757600D03*
X70760400Y-41757600D03*
%TD*%
D30*
%TO.C,R18*%
X49831000Y-75666600D03*
X48006000Y-75666600D03*
%TD*%
D23*
%TO.C,C5*%
X45999400Y-62433200D03*
X45039400Y-62433200D03*
%TD*%
D24*
%TO.C,U20*%
X40561000Y-38923200D03*
X40561000Y-40193200D03*
X40561000Y-41463200D03*
X40561000Y-42733200D03*
X40561000Y-44003200D03*
X40561000Y-45273200D03*
X40561000Y-46543200D03*
X45799000Y-46543200D03*
X45799000Y-45273200D03*
X45799000Y-44003200D03*
X45799000Y-42733200D03*
X45799000Y-41463200D03*
X45799000Y-40193200D03*
X45799000Y-38923200D03*
%TD*%
D31*
%TO.C,C51*%
X48082200Y-92532200D03*
X46532200Y-92532200D03*
%TD*%
D25*
%TO.C,R61*%
X92104400Y-46202600D03*
X91084400Y-46202600D03*
%TD*%
D32*
%TO.C,U1*%
X45838800Y-88667600D03*
X46339300Y-88667600D03*
X46838800Y-88667600D03*
X47339300Y-88667600D03*
X47838800Y-88667600D03*
X48339300Y-88667600D03*
X48838800Y-88667600D03*
X49339300Y-88667600D03*
X49838800Y-88667600D03*
X50339300Y-88667600D03*
X50838800Y-88667600D03*
X51339300Y-88667600D03*
X51838800Y-88667600D03*
X52339300Y-88667600D03*
X52838800Y-88667600D03*
X53339300Y-88667600D03*
X53838800Y-88667600D03*
X54339300Y-88667600D03*
D33*
X55088800Y-87917600D03*
X55088800Y-87417600D03*
X55088800Y-86917600D03*
X55088800Y-86417600D03*
X55088800Y-85917600D03*
X55088800Y-85417600D03*
X55088800Y-84917600D03*
X55088800Y-84417600D03*
X55088800Y-83917600D03*
X55088800Y-83417600D03*
X55088800Y-82917600D03*
X55088800Y-82417600D03*
X55088800Y-81917600D03*
X55088800Y-81417600D03*
X55088800Y-80917600D03*
X55088800Y-80417600D03*
X55088800Y-79917600D03*
X55088800Y-79417600D03*
D32*
X54338800Y-78667600D03*
X53838800Y-78667600D03*
X53338800Y-78667600D03*
X52838800Y-78667600D03*
X52338800Y-78667600D03*
X51838800Y-78667600D03*
X51338800Y-78667600D03*
X50838800Y-78667600D03*
X50338800Y-78667600D03*
X49838800Y-78667600D03*
X49338800Y-78667600D03*
X48838800Y-78667600D03*
X48338800Y-78667600D03*
X47838800Y-78667600D03*
X47338800Y-78667600D03*
X46838800Y-78667600D03*
X46338800Y-78667600D03*
X45838800Y-78667600D03*
D33*
X45088800Y-79417600D03*
X45088800Y-79917600D03*
X45088800Y-80417600D03*
X45088800Y-80917600D03*
X45088800Y-81417600D03*
X45088800Y-81917600D03*
X45088800Y-82417600D03*
X45088800Y-82917600D03*
X45088800Y-83417600D03*
X45088800Y-83917600D03*
X45088800Y-84417600D03*
X45088800Y-84917600D03*
X45088800Y-85417600D03*
X45088800Y-85917600D03*
X45088800Y-86417600D03*
X45088800Y-86917600D03*
X45088800Y-87417600D03*
X45088800Y-87917600D03*
D34*
X50089300Y-83667600D03*
%TD*%
D11*
%TO.C,R46*%
X37359400Y-46558200D03*
X38379400Y-46558200D03*
%TD*%
D20*
%TO.C,R33*%
X57734200Y-35357800D03*
X57734200Y-37007800D03*
%TD*%
D35*
%TO.C,R1*%
X58498100Y-85826600D03*
X60323100Y-85826600D03*
%TD*%
D21*
%TO.C,C62*%
X60756800Y-32847400D03*
X60756800Y-33807400D03*
%TD*%
D22*
%TO.C,C77*%
X92735400Y-52095400D03*
X92735400Y-51135400D03*
%TD*%
%TO.C,C60*%
X80289400Y-51861600D03*
X80289400Y-50901600D03*
%TD*%
D18*
%TO.C,C23*%
X44836200Y-77546200D03*
X45796200Y-77546200D03*
%TD*%
D21*
%TO.C,C59*%
X37566600Y-32847400D03*
X37566600Y-33807400D03*
%TD*%
D20*
%TO.C,R57*%
X68224400Y-35356800D03*
X68224400Y-37006800D03*
%TD*%
D30*
%TO.C,R8*%
X47214800Y-64160400D03*
X45389800Y-64160400D03*
%TD*%
%TO.C,R7*%
X70887600Y-56032400D03*
X69062600Y-56032400D03*
%TD*%
D23*
%TO.C,C21*%
X45054400Y-89814400D03*
X44094400Y-89814400D03*
%TD*%
D18*
%TO.C,C26*%
X26167200Y-70408800D03*
X27127200Y-70408800D03*
%TD*%
D29*
%TO.C,R59*%
X113054400Y-48844200D03*
X111404400Y-48844200D03*
%TD*%
D26*
%TO.C,C14*%
X30073600Y-69469600D03*
X30073600Y-67919600D03*
%TD*%
D22*
%TO.C,C86*%
X89941400Y-33802200D03*
X89941400Y-32842200D03*
%TD*%
D21*
%TO.C,C28*%
X58420000Y-87579200D03*
X58420000Y-88539200D03*
%TD*%
D36*
%TO.C,U3*%
X66771200Y-63433600D03*
X66771200Y-62933600D03*
X66771200Y-62433100D03*
X66771200Y-61932600D03*
X66771200Y-61434600D03*
X66771200Y-60934600D03*
X66771200Y-60434100D03*
X66771200Y-59933600D03*
D37*
X65971200Y-59133600D03*
X65470700Y-59133600D03*
X64970700Y-59133600D03*
X64470200Y-59133600D03*
X63972200Y-59133600D03*
X63472200Y-59133600D03*
X62971700Y-59133600D03*
X62471200Y-59133600D03*
D36*
X61671200Y-59933600D03*
X61671200Y-60434100D03*
X61671200Y-60934600D03*
X61671200Y-61434600D03*
X61671200Y-61932600D03*
X61671200Y-62433100D03*
X61671200Y-62933600D03*
X61671200Y-63433600D03*
D37*
X62471200Y-64234100D03*
X62971700Y-64234100D03*
X63472200Y-64234100D03*
X63972200Y-64234100D03*
X64470200Y-64234100D03*
X64970700Y-64234100D03*
X65470700Y-64234100D03*
X65971200Y-64234100D03*
D38*
X64221200Y-61683600D03*
%TD*%
D39*
%TO.C,U6*%
X37720250Y-69395100D03*
D40*
X36020250Y-69395100D03*
X36020250Y-71778100D03*
X37920250Y-71778100D03*
%TD*%
D26*
%TO.C,C19*%
X34594800Y-63576200D03*
X34594800Y-62026200D03*
%TD*%
D11*
%TO.C,R38*%
X37361400Y-44196000D03*
X38381400Y-44196000D03*
%TD*%
D21*
%TO.C,C88*%
X70561200Y-50805200D03*
X70561200Y-51765200D03*
%TD*%
D29*
%TO.C,R30*%
X80288400Y-48056800D03*
X78638400Y-48056800D03*
%TD*%
D22*
%TO.C,C35*%
X55930800Y-95326200D03*
X55930800Y-96286200D03*
%TD*%
D21*
%TO.C,C66*%
X38684200Y-50774600D03*
X38684200Y-51734600D03*
%TD*%
D22*
%TO.C,C83*%
X92227400Y-33802200D03*
X92227400Y-32842200D03*
%TD*%
D41*
%TO.C,D3*%
X49885600Y-72466200D03*
X48010600Y-72466200D03*
%TD*%
D21*
%TO.C,C85*%
X67564000Y-50805200D03*
X67564000Y-51765200D03*
%TD*%
D23*
%TO.C,C43*%
X48539400Y-89941400D03*
X47579400Y-89941400D03*
%TD*%
D42*
%TO.C,D1*%
X21034000Y-39471600D03*
X24384000Y-39471600D03*
%TD*%
D26*
%TO.C,C24*%
X57480200Y-60426600D03*
X57480200Y-58876600D03*
%TD*%
D23*
%TO.C,C4*%
X68859400Y-61518800D03*
X67899400Y-61518800D03*
%TD*%
D22*
%TO.C,C70*%
X79451200Y-33802200D03*
X79451200Y-32842200D03*
%TD*%
D30*
%TO.C,R6*%
X70887600Y-57937400D03*
X69062600Y-57937400D03*
%TD*%
D24*
%TO.C,U21*%
X83741000Y-38912800D03*
X83741000Y-40182800D03*
X83741000Y-41452800D03*
X83741000Y-42722800D03*
X83741000Y-43992800D03*
X83741000Y-45262800D03*
X83741000Y-46532800D03*
X88979000Y-46532800D03*
X88979000Y-45262800D03*
X88979000Y-43992800D03*
X88979000Y-42722800D03*
X88979000Y-41452800D03*
X88979000Y-40182800D03*
X88979000Y-38912800D03*
%TD*%
D21*
%TO.C,C79*%
X69062600Y-32847400D03*
X69062600Y-33807400D03*
%TD*%
D18*
%TO.C,C13*%
X26441400Y-68122800D03*
X27401400Y-68122800D03*
%TD*%
D11*
%TO.C,R48*%
X80590200Y-46583600D03*
X81610200Y-46583600D03*
%TD*%
D22*
%TO.C,C89*%
X110921800Y-33802200D03*
X110921800Y-32842200D03*
%TD*%
%TO.C,C71*%
X102717600Y-33802200D03*
X102717600Y-32842200D03*
%TD*%
D30*
%TO.C,R2*%
X48053000Y-59969400D03*
X46228000Y-59969400D03*
%TD*%
D23*
%TO.C,C52*%
X55595400Y-89814400D03*
X54635400Y-89814400D03*
%TD*%
D22*
%TO.C,C81*%
X113055400Y-52649000D03*
X113055400Y-51689000D03*
%TD*%
D20*
%TO.C,R28*%
X39446200Y-35356800D03*
X39446200Y-37006800D03*
%TD*%
D43*
%TO.C,C55*%
X103124000Y-95885000D03*
X103124000Y-93985000D03*
%TD*%
D11*
%TO.C,R40*%
X80590200Y-44221400D03*
X81610200Y-44221400D03*
%TD*%
D44*
%TO.C,U18*%
X115646200Y-78566000D03*
X115646200Y-74366000D03*
D45*
X118196200Y-73016000D03*
D46*
X118196200Y-79916000D03*
%TD*%
D21*
%TO.C,C78*%
X71247000Y-32847400D03*
X71247000Y-33807400D03*
%TD*%
%TO.C,C40*%
X56210200Y-78440400D03*
X56210200Y-79400400D03*
%TD*%
%TO.C,C72*%
X64566800Y-50805200D03*
X64566800Y-51765200D03*
%TD*%
D20*
%TO.C,R29*%
X36703000Y-35344600D03*
X36703000Y-36994600D03*
%TD*%
D25*
%TO.C,R62*%
X49328800Y-39497000D03*
X48308800Y-39497000D03*
%TD*%
D18*
%TO.C,C48*%
X31653600Y-66751200D03*
X32613600Y-66751200D03*
%TD*%
D23*
%TO.C,C2*%
X45994200Y-61518800D03*
X45034200Y-61518800D03*
%TD*%
%TO.C,C6*%
X68854200Y-62433200D03*
X67894200Y-62433200D03*
%TD*%
D24*
%TO.C,U22*%
X63446400Y-38948600D03*
X63446400Y-40218600D03*
X63446400Y-41488600D03*
X63446400Y-42758600D03*
X63446400Y-44028600D03*
X63446400Y-45298600D03*
X63446400Y-46568600D03*
X68684400Y-46568600D03*
X68684400Y-45298600D03*
X68684400Y-44028600D03*
X68684400Y-42758600D03*
X68684400Y-41488600D03*
X68684400Y-40218600D03*
X68684400Y-38948600D03*
%TD*%
D30*
%TO.C,R5*%
X70887600Y-59842400D03*
X69062600Y-59842400D03*
%TD*%
D11*
%TO.C,R47*%
X60194000Y-39547800D03*
X61214000Y-39547800D03*
%TD*%
D28*
%TO.C,C3*%
X71882000Y-61493400D03*
X71882000Y-63043400D03*
%TD*%
D25*
%TO.C,R71*%
X71784400Y-43992800D03*
X70764400Y-43992800D03*
%TD*%
D47*
%TO.C,R20*%
X75031600Y-86410800D03*
X75031600Y-85390800D03*
%TD*%
D36*
%TO.C,U2*%
X43911200Y-63426100D03*
X43911200Y-62926100D03*
X43911200Y-62425600D03*
X43911200Y-61925100D03*
X43911200Y-61427100D03*
X43911200Y-60927100D03*
X43911200Y-60426600D03*
X43911200Y-59926100D03*
D37*
X43111200Y-59126100D03*
X42610700Y-59126100D03*
X42110700Y-59126100D03*
X41610200Y-59126100D03*
X41112200Y-59126100D03*
X40612200Y-59126100D03*
X40111700Y-59126100D03*
X39611200Y-59126100D03*
D36*
X38811200Y-59926100D03*
X38811200Y-60426600D03*
X38811200Y-60927100D03*
X38811200Y-61427100D03*
X38811200Y-61925100D03*
X38811200Y-62425600D03*
X38811200Y-62926100D03*
X38811200Y-63426100D03*
D37*
X39611200Y-64226600D03*
X40111700Y-64226600D03*
X40612200Y-64226600D03*
X41112200Y-64226600D03*
X41610200Y-64226600D03*
X42110700Y-64226600D03*
X42610700Y-64226600D03*
X43111200Y-64226600D03*
D38*
X41361200Y-61676100D03*
%TD*%
D21*
%TO.C,C74*%
X50241200Y-32842200D03*
X50241200Y-33802200D03*
%TD*%
D20*
%TO.C,R52*%
X49936400Y-35356800D03*
X49936400Y-37006800D03*
%TD*%
D29*
%TO.C,R31*%
X83260200Y-48056800D03*
X81610200Y-48056800D03*
%TD*%
D11*
%TO.C,R37*%
X80590200Y-41859200D03*
X81610200Y-41859200D03*
%TD*%
D26*
%TO.C,C31*%
X53594000Y-96570800D03*
X53594000Y-95020800D03*
%TD*%
D13*
%TO.C,R11*%
X67360800Y-67661800D03*
X67360800Y-65836800D03*
%TD*%
D31*
%TO.C,C32*%
X45060200Y-92329000D03*
X43510200Y-92329000D03*
%TD*%
D25*
%TO.C,R68*%
X49330800Y-43942000D03*
X48310800Y-43942000D03*
%TD*%
D21*
%TO.C,C22*%
X56210200Y-87584400D03*
X56210200Y-88544400D03*
%TD*%
D22*
%TO.C,C56*%
X114325400Y-74543800D03*
X114325400Y-73583800D03*
%TD*%
D48*
%TO.C,C7*%
X26035000Y-23393400D03*
X26035000Y-25293400D03*
%TD*%
D22*
%TO.C,C76*%
X89763600Y-52090200D03*
X89763600Y-51130200D03*
%TD*%
D11*
%TO.C,R50*%
X60194000Y-46532800D03*
X61214000Y-46532800D03*
%TD*%
D30*
%TO.C,R9*%
X70074800Y-64109600D03*
X68249800Y-64109600D03*
%TD*%
%TO.C,R4*%
X48053000Y-56159400D03*
X46228000Y-56159400D03*
%TD*%
D46*
%TO.C,U19*%
X118197550Y-88915400D03*
D45*
X118197550Y-82015400D03*
D44*
X115647550Y-83365400D03*
X115647550Y-87565400D03*
%TD*%
D25*
%TO.C,R69*%
X92102400Y-43992800D03*
X91082400Y-43992800D03*
%TD*%
D30*
%TO.C,R3*%
X48056800Y-58064400D03*
X46231800Y-58064400D03*
%TD*%
D25*
%TO.C,R60*%
X49328800Y-46177200D03*
X48308800Y-46177200D03*
%TD*%
D29*
%TO.C,R34*%
X100608400Y-48056800D03*
X98958400Y-48056800D03*
%TD*%
D48*
%TO.C,C10*%
X29260800Y-23398400D03*
X29260800Y-25298400D03*
%TD*%
D21*
%TO.C,C84*%
X47675800Y-50774600D03*
X47675800Y-51734600D03*
%TD*%
D49*
%TO.C,D2*%
X74833000Y-95097600D03*
X76708000Y-95097600D03*
%TD*%
D21*
%TO.C,C53*%
X39243000Y-70363200D03*
X39243000Y-71323200D03*
%TD*%
D27*
%TO.C,C12*%
X30053200Y-54457600D03*
X31953200Y-54457600D03*
%TD*%
D11*
%TO.C,R51*%
X100910200Y-46761400D03*
X101930200Y-46761400D03*
%TD*%
D21*
%TO.C,C57*%
X100736400Y-97155000D03*
X100736400Y-98115000D03*
%TD*%
D18*
%TO.C,C37*%
X44836200Y-73101200D03*
X45796200Y-73101200D03*
%TD*%
D25*
%TO.C,R25*%
X101729000Y-95885000D03*
X100709000Y-95885000D03*
%TD*%
D11*
%TO.C,R39*%
X60194000Y-41859200D03*
X61214000Y-41859200D03*
%TD*%
%TO.C,R49*%
X100910200Y-39700200D03*
X101930200Y-39700200D03*
%TD*%
D18*
%TO.C,C29*%
X44836200Y-75336400D03*
X45796200Y-75336400D03*
%TD*%
D21*
%TO.C,C58*%
X39751000Y-32842200D03*
X39751000Y-33802200D03*
%TD*%
D22*
%TO.C,C46*%
X41630600Y-88920200D03*
X41630600Y-87960200D03*
%TD*%
D50*
%TO.C,X1*%
X63423800Y-92411200D03*
X63423800Y-86811200D03*
%TD*%
D22*
%TO.C,C41*%
X43967400Y-88920200D03*
X43967400Y-87960200D03*
%TD*%
D25*
%TO.C,R72*%
X92104400Y-41757600D03*
X91084400Y-41757600D03*
%TD*%
D22*
%TO.C,C64*%
X100609400Y-51912400D03*
X100609400Y-50952400D03*
%TD*%
D11*
%TO.C,R42*%
X60194000Y-44221400D03*
X61214000Y-44221400D03*
%TD*%
D51*
%TO.C,D4*%
X30175200Y-66416400D03*
X30175200Y-64541400D03*
%TD*%
D19*
%TO.C,R26*%
X58547000Y-70895400D03*
X58547000Y-69875400D03*
%TD*%
D11*
%TO.C,R45*%
X80590200Y-39522400D03*
X81610200Y-39522400D03*
%TD*%
D13*
%TO.C,R10*%
X44500800Y-67739900D03*
X44500800Y-65914900D03*
%TD*%
D18*
%TO.C,C16*%
X59588400Y-57988200D03*
X60548400Y-57988200D03*
%TD*%
D11*
%TO.C,R22*%
X111705200Y-90830400D03*
X112725200Y-90830400D03*
%TD*%
D44*
%TO.C,U7*%
X23823850Y-71415800D03*
X23823850Y-75615800D03*
D52*
X21273850Y-76965800D03*
D53*
X21273850Y-70065800D03*
%TD*%
D11*
%TO.C,R44*%
X37359400Y-39547800D03*
X38379400Y-39547800D03*
%TD*%
D21*
%TO.C,C63*%
X58572400Y-32847400D03*
X58572400Y-33807400D03*
%TD*%
D20*
%TO.C,R32*%
X60477400Y-35357800D03*
X60477400Y-37007800D03*
%TD*%
D21*
%TO.C,C49*%
X60629800Y-78440400D03*
X60629800Y-79400400D03*
%TD*%
D54*
%TO.C,U5*%
X21779200Y-64537800D03*
X24079200Y-64537800D03*
X26379200Y-64537800D03*
D55*
X24079200Y-58597800D03*
%TD*%
D22*
%TO.C,C65*%
X103581200Y-51912400D03*
X103581200Y-50952400D03*
%TD*%
D56*
%TO.C,U10*%
X106516000Y-92456000D03*
X107316000Y-92456000D03*
D57*
X108466000Y-92456000D03*
X109466000Y-92456000D03*
X109966000Y-92456000D03*
X110966000Y-92456000D03*
D56*
X112916000Y-92456000D03*
X112116000Y-92456000D03*
D57*
X111466000Y-92456000D03*
X110466000Y-92456000D03*
X108966000Y-92456000D03*
X107966000Y-92456000D03*
%TD*%
D20*
%TO.C,R56*%
X70967600Y-35370000D03*
X70967600Y-37020000D03*
%TD*%
D22*
%TO.C,C73*%
X100431600Y-33807400D03*
X100431600Y-32847400D03*
%TD*%
D18*
%TO.C,C33*%
X59568200Y-61925200D03*
X60528200Y-61925200D03*
%TD*%
D19*
%TO.C,R12*%
X41681400Y-68046600D03*
X41681400Y-67026600D03*
%TD*%
D25*
%TO.C,R14*%
X37490400Y-66979800D03*
X36470400Y-66979800D03*
%TD*%
%TO.C,R73*%
X112422400Y-46380400D03*
X111402400Y-46380400D03*
%TD*%
%TO.C,R65*%
X112422400Y-44145200D03*
X111402400Y-44145200D03*
%TD*%
D29*
%TO.C,R58*%
X110082600Y-48844200D03*
X108432600Y-48844200D03*
%TD*%
D22*
%TO.C,C50*%
X39268400Y-88920200D03*
X39268400Y-87960200D03*
%TD*%
D21*
%TO.C,C75*%
X48056800Y-32842200D03*
X48056800Y-33802200D03*
%TD*%
D22*
%TO.C,C80*%
X110083600Y-52649000D03*
X110083600Y-51689000D03*
%TD*%
D23*
%TO.C,C47*%
X55930800Y-90906600D03*
X54970800Y-90906600D03*
%TD*%
D18*
%TO.C,C39*%
X54358600Y-77520800D03*
X55318600Y-77520800D03*
%TD*%
D21*
%TO.C,C45*%
X58394600Y-78440400D03*
X58394600Y-79400400D03*
%TD*%
D11*
%TO.C,R21*%
X106756200Y-90805000D03*
X107776200Y-90805000D03*
%TD*%
%TO.C,R43*%
X100910200Y-44424600D03*
X101930200Y-44424600D03*
%TD*%
D26*
%TO.C,C27*%
X57480200Y-63399000D03*
X57480200Y-61849000D03*
%TD*%
D25*
%TO.C,R63*%
X71784400Y-46228000D03*
X70764400Y-46228000D03*
%TD*%
D19*
%TO.C,R16*%
X53695600Y-90986800D03*
X53695600Y-89966800D03*
%TD*%
D25*
%TO.C,R66*%
X71784400Y-39522400D03*
X70764400Y-39522400D03*
%TD*%
%TO.C,R67*%
X112422400Y-41910000D03*
X111402400Y-41910000D03*
%TD*%
D22*
%TO.C,C38*%
X54914800Y-95326200D03*
X54914800Y-96286200D03*
%TD*%
D29*
%TO.C,R54*%
X89763600Y-48666400D03*
X88113600Y-48666400D03*
%TD*%
%TO.C,R55*%
X92735400Y-48666400D03*
X91085400Y-48666400D03*
%TD*%
M02*
