M48
; DRILL file {KiCad 9.0.7} date 2026-04-29T13:19:15-0500
; FORMAT={-:-/ absolute / metric / decimal}
; #@! TF.CreationDate,2026-04-29T13:19:15-05:00
; #@! TF.GenerationSoftware,Kicad,Pcbnew,9.0.7
; #@! TF.FileFunction,Plated,1,4,PTH
FMAT,2
METRIC
; #@! TA.AperFunction,Plated,PTH,ViaDrill
T1C0.300
; #@! TA.AperFunction,Plated,PTH,ComponentDrill
T2C0.600
; #@! TA.AperFunction,Plated,PTH,ComponentDrill
T3C0.800
; #@! TA.AperFunction,Plated,PTH,ComponentDrill
T4C1.000
; #@! TA.AperFunction,Plated,PTH,ComponentDrill
T5C1.300
; #@! TA.AperFunction,Plated,PTH,ComponentDrill
T6C2.000
%
G90
G05
T1
X26.379Y-64.538
X34.595Y-60.605
X34.595Y-62.026
X37.193Y-62.641
X37.359Y-39.548
X37.359Y-46.558
X37.361Y-44.196
X37.363Y-41.885
X37.863Y-63.241
X37.871Y-64.841
X37.879Y-64.041
X38.095Y-61.18
X39.268Y-87.96
X39.624Y-67.818
X39.802Y-65.228
X40.164Y-60.463
X40.191Y-62.949
X40.561Y-40.193
X40.561Y-42.733
X41.3Y-65.711
X41.361Y-61.676
X41.885Y-81.839
X42.559Y-60.535
X42.562Y-63.043
X42.596Y-82.518
X42.772Y-81.028
X43.085Y-79.495
X43.112Y-66.268
X43.538Y-80.797
X43.942Y-79.395
X44.836Y-73.101
X45.054Y-89.814
X45.796Y-73.101
X45.799Y-40.193
X45.799Y-42.733
X45.994Y-61.519
X45.999Y-62.433
X47.498Y-81.026
X47.498Y-82.042
X47.498Y-82.804
X47.498Y-83.566
X47.498Y-84.328
X47.498Y-85.09
X47.498Y-85.852
X47.579Y-89.941
X48.053Y-56.159
X48.514Y-81.026
X48.514Y-82.042
X48.514Y-82.804
X48.514Y-83.566
X48.514Y-84.328
X48.514Y-85.09
X48.514Y-85.852
X48.539Y-89.941
X49.276Y-61.62
X49.276Y-63.17
X49.327Y-41.707
X49.329Y-39.497
X49.329Y-46.177
X49.331Y-43.942
X49.53Y-81.026
X49.53Y-82.042
X49.53Y-82.804
X49.53Y-83.566
X49.53Y-84.328
X49.53Y-85.09
X49.53Y-85.852
X50.239Y-77.569
X50.546Y-81.026
X50.546Y-82.042
X50.546Y-82.804
X50.546Y-83.566
X50.546Y-84.328
X50.546Y-85.09
X50.546Y-85.852
X50.97Y-67.067
X51.562Y-81.026
X51.562Y-82.042
X51.562Y-82.804
X51.562Y-83.566
X51.562Y-84.328
X51.562Y-85.09
X51.562Y-85.852
X52.222Y-67.742
X52.451Y-69.698
X52.578Y-81.026
X52.578Y-82.042
X52.578Y-82.804
X52.578Y-83.566
X52.578Y-84.328
X52.578Y-85.09
X52.578Y-85.852
X52.705Y-90.927
X53.594Y-95.021
X54.359Y-77.521
X54.635Y-89.814
X54.989Y-88.301
X55.931Y-91.872
X56.083Y-85.318
X56.413Y-74.905
X57.175Y-73.701
X57.477Y-85.818
X57.48Y-60.427
X57.48Y-61.849
X58.623Y-69.164
X60.049Y-62.638
X60.194Y-39.548
X60.194Y-41.859
X60.194Y-44.221
X60.194Y-46.533
X60.63Y-79.4
X60.63Y-87.584
X60.724Y-63.238
X60.946Y-61.176
X61.087Y-64.084
X61.809Y-64.429
X62.872Y-65.111
X63.028Y-62.81
X63.031Y-60.298
X63.446Y-40.219
X63.446Y-42.759
X64.221Y-61.684
X64.408Y-65.484
X64.567Y-68.076
X65.404Y-60.405
X65.419Y-62.879
X65.965Y-66.268
X68.684Y-40.219
X68.684Y-42.759
X68.854Y-62.433
X68.859Y-61.519
X70.888Y-56.032
X71.371Y-51.863
X71.78Y-41.758
X71.784Y-39.522
X71.784Y-43.993
X71.784Y-46.228
X71.882Y-61.493
X71.882Y-63.043
X72.009Y-52.462
X72.434Y-57.391
X72.441Y-58.191
X72.466Y-56.591
X72.526Y-53.516
X72.543Y-58.984
X73.047Y-54.123
X73.203Y-66.675
X73.247Y-67.474
X74.833Y-95.098
X75.032Y-85.391
X75.032Y-86.411
X75.082Y-67.208
X75.159Y-66.04
X80.59Y-39.522
X80.59Y-41.859
X80.59Y-44.221
X80.59Y-46.584
X81.777Y-81.91
X83.741Y-42.723
X83.741Y-45.263
X84.506Y-81.899
X85.519Y-81.867
X88.979Y-42.723
X88.979Y-45.263
X90.627Y-89.3
X90.627Y-90.7
X90.627Y-92.1
X92.027Y-89.3
X92.027Y-90.7
X92.027Y-92.1
X92.102Y-43.993
X92.104Y-39.522
X92.104Y-41.758
X92.104Y-46.203
X93.427Y-89.3
X93.427Y-90.7
X93.427Y-92.1
X93.731Y-79.065
X94.972Y-80.63
X100.91Y-39.7
X100.91Y-42.062
X100.91Y-44.425
X100.91Y-46.761
X103.124Y-95.885
X104.061Y-42.733
X104.061Y-45.273
X109.299Y-42.733
X109.299Y-45.273
X112.418Y-39.675
X112.422Y-41.91
X112.422Y-44.145
X112.422Y-46.38
X114.198Y-80.721
X115.646Y-78.566
T3
X21.524Y-69.791
X21.524Y-77.291
X117.946Y-72.691
X117.946Y-80.191
X117.948Y-81.69
X117.948Y-89.19
T4
X23.195Y-48.5
X23.195Y-51.04
X23.195Y-53.58
X24.079Y-67.539
X24.079Y-80.975
X26.619Y-80.975
X26.901Y-39.675
X29.058Y-58.623
X29.159Y-80.975
X31.699Y-80.975
X36.855Y-98.069
X38.684Y-48.844
X39.395Y-98.069
X41.681Y-48.844
X41.935Y-98.069
X44.475Y-98.069
X44.679Y-48.844
X47.015Y-98.069
X47.676Y-48.844
X49.555Y-98.069
X60.833Y-68.047
X60.833Y-70.587
X61.57Y-48.92
X64.567Y-48.87
X64.77Y-98.069
X67.31Y-98.069
X67.564Y-48.87
X69.85Y-98.069
X70.561Y-48.87
X72.39Y-98.069
X74.93Y-98.069
X78.994Y-83.972
X78.994Y-86.512
X78.994Y-89.052
X78.994Y-91.592
X80.696Y-36.449
X83.693Y-36.424
X89.078Y-36.347
X92.075Y-36.449
X101.067Y-36.601
X104.064Y-36.601
X109.296Y-36.601
X109.499Y-73.558
X112.293Y-36.627
T5
X23.952Y-29.362
X23.952Y-34.362
T6
X22.555Y-22.555
X22.581Y-97.434
X117.424Y-97.434
X117.45Y-22.555
T2
G00X105.396Y-92.526
M15
G01X105.396Y-93.626
M16
G05
G00X105.396Y-96.856
M15
G01X105.396Y-97.656
M16
G05
G00X114.036Y-92.526
M15
G01X114.036Y-93.626
M16
G05
G00X114.036Y-96.856
M15
G01X114.036Y-97.656
M16
G05
M30
